<?xml version="1.0" standalone="no"?>
<!DOCTYPE svg PUBLIC "-//W3C//DTD SVG 20010904//EN"
 "http://www.w3.org/TR/2001/REC-SVG-20010904/DTD/svg10.dtd">
<svg version="1.0" xmlns="http://www.w3.org/2000/svg"
 width="1000.000000pt" height="650.000000pt" viewBox="0 0 1000.000000 650.000000"
 preserveAspectRatio="xMidYMid meet">
<metadata>
Created by potrace 1.14, written by Peter Selinger 2001-2017
</metadata>
<g transform="translate(0.000000,650.000000) scale(0.100000,-0.100000)"
fill="#000000" stroke="none">
<path d="M2651 6491 c-8 -5 -19 -7 -26 -5 -6 3 -17 -1 -23 -8 -14 -18 3 -109
24 -125 9 -6 13 -16 10 -22 -9 -14 22 -41 47 -41 31 1 110 20 117 28 9 12 149
90 168 93 13 3 37 11 57 20 51 22 113 39 147 39 20 0 40 5 43 10 4 6 10 8 15
5 5 -3 11 -1 15 5 8 13 -574 14 -594 1z"/>
<path d="M4050 6484 c0 -9 10 -47 22 -85 l23 -69 71 0 c39 0 91 -3 116 -6 l45
-6 14 91 15 91 -153 0 c-133 0 -153 -2 -153 -16z"/>
<path d="M5970 6486 c0 -8 5 -18 11 -21 6 -4 8 -14 5 -22 -12 -30 31 -72 56
-57 20 13 94 11 122 -3 20 -11 31 -12 39 -4 6 6 18 11 27 11 19 0 70 41 70 55
0 6 9 16 20 23 44 27 19 32 -165 32 -154 0 -185 -2 -185 -14z"/>
<path d="M6738 6484 c-8 -40 5 -113 23 -133 10 -11 19 -25 19 -31 0 -5 5 -10
11 -10 7 0 8 -11 4 -30 -7 -32 2 -51 44 -99 16 -19 30 -23 72 -23 48 0 55 3
83 37 38 45 112 73 176 68 128 -11 215 -26 239 -41 28 -18 107 -88 125 -111 6
-8 31 -34 55 -58 36 -36 49 -43 69 -38 13 3 30 1 37 -5 9 -7 15 -8 19 -1 4 6
20 8 36 5 17 -4 52 2 89 15 62 21 95 20 158 -6 17 -7 35 -17 38 -23 5 -8 11
-7 21 1 7 6 11 15 8 20 -3 5 0 9 5 9 6 0 11 -6 11 -14 0 -9 7 -12 21 -9 16 4
18 8 7 14 -8 6 0 6 20 3 17 -4 32 -2 32 3 0 4 18 7 40 5 35 -4 40 -2 40 17 0
12 5 21 10 21 6 0 10 7 10 15 0 16 -16 20 -24 6 -4 -5 -24 -4 -48 2 -23 6 -37
12 -30 15 19 6 -4 40 -73 108 l-63 62 25 11 c14 7 23 14 20 18 -8 8 -167 -17
-167 -27 0 -3 -42 -15 -92 -24 -51 -10 -104 -24 -118 -30 -46 -22 -248 0 -252
27 -1 7 -2 23 -2 36 -2 40 -56 65 -146 67 -135 3 -180 13 -212 47 -15 18 -30
39 -33 47 -11 35 -70 50 -190 50 -97 0 -114 -2 -117 -16z"/>
<path d="M8739 6378 c0 -157 -7 -262 -19 -316 -6 -24 -7 -50 -2 -58 5 -8 5
-37 2 -65 -4 -27 -3 -52 2 -55 5 -4 2 -14 -7 -24 -9 -10 -12 -20 -6 -21 11 -5
24 -97 22 -156 -1 -28 2 -43 10 -43 8 0 6 -7 -5 -19 -16 -17 -16 -20 -1 -35 9
-9 14 -20 11 -25 -4 -5 0 -12 6 -15 7 -3 0 -3 -17 -1 -16 3 -25 3 -19 0 7 -3
10 -16 8 -28 -4 -18 -3 -19 4 -4 7 16 9 16 29 -7 14 -16 18 -26 10 -29 -9 -3
-8 -9 3 -22 12 -15 12 -17 1 -10 -11 6 -13 4 -8 -9 6 -14 3 -17 -10 -12 -15 5
-15 4 1 -9 17 -13 18 -15 3 -15 -9 0 -17 -4 -17 -10 0 -5 5 -9 12 -7 15 3 18
-23 5 -41 -7 -9 -5 -11 8 -6 13 6 16 4 10 -5 -4 -8 -2 -17 6 -22 10 -6 11 -9
2 -9 -7 0 -13 -6 -13 -14 0 -8 6 -17 13 -19 7 -3 4 -6 -7 -6 -15 -1 -16 -4 -7
-15 8 -10 9 -16 1 -21 -6 -3 -8 -9 -6 -13 12 -19 15 -86 5 -98 -7 -9 -8 -14
-1 -14 5 0 8 -9 5 -20 -3 -11 -10 -17 -17 -13 -6 3 -3 -3 7 -14 19 -21 14 -33
-15 -33 -10 0 -18 -4 -18 -10 0 -5 5 -10 10 -10 6 0 19 -9 30 -20 13 -13 15
-20 7 -20 -9 0 -13 -13 -11 -40 1 -23 4 -44 7 -47 4 -3 2 -14 -3 -24 -7 -12
-6 -19 3 -22 9 -4 9 -6 0 -6 -18 -1 -16 -21 2 -21 12 0 10 -5 -5 -20 -20 -20
-20 -30 -4 -92 3 -9 0 -19 -6 -23 -5 -3 -10 -15 -10 -26 0 -22 -11 -24 -28 -7
-9 9 -12 9 -12 1 0 -7 5 -15 10 -18 6 -4 8 -16 4 -27 -4 -13 -2 -18 5 -14 6 4
13 -5 17 -21 4 -15 11 -33 16 -40 6 -7 4 -13 -4 -16 -10 -4 -10 -8 2 -16 12
-8 12 -13 2 -23 -14 -14 -17 -52 -3 -44 4 3 7 -9 5 -26 -2 -18 -9 -35 -15 -38
-5 -4 -9 -29 -8 -56 1 -27 -1 -57 -5 -66 -5 -11 -4 -18 2 -18 13 0 6 -44 -7
-48 -5 -2 -5 -18 -1 -37 6 -27 5 -35 -6 -35 -10 0 -12 -11 -10 -40 2 -29 -1
-40 -10 -40 -9 0 -12 -10 -10 -30 2 -16 1 -32 -2 -35 -7 -6 -3 -102 4 -127 4
-12 0 -18 -13 -19 -10 0 -13 -3 -5 -6 6 -2 12 -11 12 -18 0 -7 -6 -15 -12 -18
-10 -3 -10 -7 1 -20 12 -16 9 -21 -11 -18 -12 2 -9 -17 2 -21 7 -2 5 -15 -5
-34 -8 -17 -17 -46 -19 -64 -2 -18 -9 -36 -16 -40 -9 -5 -9 -9 -1 -14 8 -5 8
-13 -1 -29 -7 -12 -11 -26 -10 -31 2 -4 -3 -15 -10 -24 -11 -13 -10 -14 15 -8
32 8 37 -8 7 -24 -11 -6 -19 -14 -18 -18 5 -17 -23 -51 -38 -45 -13 5 -14 2
-6 -13 5 -10 16 -40 24 -65 14 -43 13 -47 -4 -58 -10 -6 -18 -20 -18 -30 0
-10 -7 -24 -15 -31 -8 -7 -15 -29 -15 -50 0 -37 -2 -40 -50 -54 -3 -1 -11 -5
-17 -9 -16 -10 -36 1 -27 14 3 6 -3 19 -15 30 -12 11 -21 24 -21 29 0 11 -80
65 -96 65 -6 0 -19 7 -28 14 -15 13 -15 15 0 32 20 22 12 36 -26 44 -17 4 -30
13 -30 20 0 8 -9 16 -20 20 -11 3 -19 11 -17 17 1 7 -13 12 -32 13 -19 0 -36
6 -39 13 -2 8 -9 9 -21 3 -10 -6 -24 -9 -33 -8 -20 3 -78 53 -78 66 0 6 -4 11
-10 11 -5 0 -10 -7 -10 -15 0 -8 -4 -15 -10 -15 -5 0 -10 5 -10 10 0 6 -11 8
-25 4 -15 -4 -25 -2 -25 5 0 10 13 15 32 13 3 -1 9 5 12 13 4 10 -1 15 -14 15
-11 0 -20 5 -20 11 0 8 -5 8 -15 -1 -10 -9 -15 -9 -15 -1 0 6 -4 11 -10 11 -5
0 -10 -7 -10 -16 0 -14 -3 -14 -15 -4 -8 7 -15 9 -15 5 0 -4 -6 -2 -14 4 -18
15 -105 31 -112 20 -10 -18 -22 -9 -16 13 4 17 2 20 -11 15 -13 -5 -17 -1 -17
16 0 16 -3 18 -9 8 -13 -20 -33 -3 -25 21 4 15 2 19 -7 16 -8 -3 -14 -11 -15
-19 -2 -35 -4 -42 -11 -35 -4 3 -7 21 -7 39 -1 29 -4 32 -33 32 -18 0 -33 4
-33 10 0 11 -49 55 -62 55 -4 0 -8 -3 -8 -7 0 -5 -13 -8 -30 -9 -16 -1 -27 3
-24 7 3 5 -1 6 -9 4 -16 -7 -69 33 -62 46 4 5 1 9 -5 9 -7 0 -10 -6 -7 -14 3
-8 0 -16 -6 -19 -18 -6 -38 3 -31 15 4 6 -1 8 -15 3 -12 -4 -21 -2 -21 4 0 20
-28 11 -33 -10 -5 -17 -9 -19 -26 -10 -17 10 -20 9 -15 -4 9 -22 -9 -18 -24 5
-10 17 -10 21 4 27 12 4 9 9 -16 19 -38 16 -53 18 -27 3 21 -13 23 -33 1 -25
-11 4 -15 2 -11 -8 4 -9 0 -12 -13 -9 -15 4 -17 10 -9 36 10 35 10 34 -15 39
-10 1 -21 -3 -23 -10 -3 -7 1 -10 11 -6 9 3 16 1 16 -5 0 -10 -14 -15 -34 -12
-5 1 -6 -5 -2 -14 4 -11 2 -14 -7 -9 -32 18 -47 39 -41 56 3 10 1 18 -5 18 -6
0 -11 -7 -11 -16 0 -15 -2 -15 -25 0 -13 9 -35 16 -49 16 -13 0 -31 7 -40 15
-21 22 -24 19 -24 -20 0 -30 3 -35 24 -36 32 -2 37 -3 52 -12 7 -5 12 -4 12 3
0 6 -7 13 -15 16 -16 7 -21 24 -6 24 15 0 42 -31 38 -44 -5 -15 48 -46 81 -46
15 0 40 -7 56 -15 38 -20 66 -19 66 3 1 10 7 3 15 -15 13 -30 45 -46 45 -23 0
6 -4 10 -10 10 -5 0 -10 5 -10 11 0 6 9 8 20 4 14 -4 20 -2 20 9 0 16 18 31
27 23 2 -3 -5 -19 -18 -36 -12 -17 -21 -32 -18 -33 2 -2 31 -16 64 -32 33 -17
61 -30 63 -31 1 -1 -5 -18 -13 -38 -19 -46 -20 -107 -1 -107 7 0 19 -7 26 -15
8 -10 25 -14 49 -12 32 3 39 9 61 53 14 27 26 51 28 53 1 2 5 1 8 -2 4 -4 1
-13 -6 -22 -7 -9 -10 -18 -6 -22 3 -4 13 2 22 13 14 18 15 18 8 -6 -4 -14 -9
-30 -11 -37 -3 -6 6 -17 19 -24 13 -6 26 -16 29 -22 4 -5 15 5 24 22 21 42 26
36 15 -14 -11 -49 -4 -86 16 -78 8 3 14 -1 14 -11 0 -9 8 -16 20 -16 11 0 20
4 20 9 0 5 8 12 17 15 16 6 16 6 0 -12 -26 -29 -22 -45 13 -44 3 0 15 3 27 6
18 6 21 4 16 -15 -5 -18 -3 -21 10 -16 11 4 17 1 17 -8 0 -17 16 -20 24 -6 12
18 95 1 120 -24 14 -14 34 -25 46 -25 11 0 20 -4 20 -10 0 -5 16 -10 35 -10
26 0 39 6 51 25 15 23 17 24 45 9 16 -8 29 -19 29 -24 0 -6 6 -10 13 -10 20 0
102 -82 116 -117 7 -17 23 -41 37 -54 16 -15 26 -38 30 -70 4 -28 12 -50 21
-53 8 -3 13 -14 12 -23 -3 -33 1 -36 22 -17 l22 19 -8 -30 c-4 -16 -9 -48 -11
-70 -2 -22 -7 -57 -10 -78 -5 -30 -2 -41 12 -51 17 -13 17 -15 2 -38 -19 -29
-24 -57 -13 -81 4 -11 0 -39 -13 -73 -16 -44 -18 -62 -10 -91 6 -23 6 -44 -1
-62 -13 -34 -17 -93 -7 -109 8 -14 3 -49 -16 -95 -8 -20 -14 -25 -23 -17 -9 8
-14 4 -18 -17 -4 -20 0 -32 14 -43 24 -19 23 -60 -1 -115 -10 -22 -22 -56 -28
-75 l-9 -35 -11 26 c-17 43 -38 42 -77 -3 -19 -23 -35 -48 -35 -55 0 -7 -4
-13 -10 -13 -5 0 -10 -13 -10 -28 0 -15 -7 -37 -15 -47 -9 -11 -36 -51 -61
-88 -43 -66 -45 -71 -43 -140 1 -44 9 -88 20 -112 9 -22 22 -85 28 -140 15
-130 14 -168 -1 -163 -11 4 -18 32 -43 172 -7 36 -13 46 -27 46 -6 0 -8 -14
-4 -38 3 -20 9 -59 12 -87 4 -27 11 -56 16 -62 7 -9 6 -18 -3 -30 -10 -11 -10
-14 -1 -9 6 4 12 3 12 -3 0 -5 -4 -11 -10 -13 -10 -3 31 -58 44 -58 3 0 6 7 6
15 0 30 19 14 26 -22 5 -25 3 -38 -5 -41 -6 -2 -11 -10 -11 -18 0 -8 -6 -11
-17 -7 -11 4 -14 3 -9 -5 4 -7 14 -12 22 -12 9 0 14 -7 12 -17 -2 -11 -11 -17
-21 -15 -11 2 -17 -4 -17 -18 0 -11 6 -20 14 -20 8 0 25 -19 38 -42 22 -39 25
-55 26 -188 1 -80 7 -171 13 -203 7 -42 7 -62 -1 -72 -7 -9 -7 -21 1 -41 10
-25 13 -55 18 -171 1 -23 2 -23 162 -23 113 0 158 3 153 11 -3 6 -6 28 -6 49
1 23 -5 40 -12 43 -23 9 -26 47 -5 68 20 20 26 64 9 74 -5 3 -10 17 -10 30 0
13 -5 27 -10 30 -12 7 -9 145 2 145 5 0 8 9 8 21 0 15 5 19 15 15 20 -7 19 18
-1 49 -9 14 -14 34 -11 45 3 12 -5 30 -25 50 -20 21 -26 35 -20 43 5 7 9 60 9
119 0 101 1 109 24 131 52 51 91 37 105 -38 11 -63 31 -102 55 -108 11 -3 18
-10 15 -15 -8 -13 10 -62 22 -62 5 0 15 18 22 40 7 22 17 40 22 40 4 0 7 -5 5
-11 -1 -6 3 -14 10 -16 7 -2 14 6 17 19 2 13 9 47 15 76 6 30 11 78 11 107 0
30 5 57 11 60 6 4 8 12 6 19 -3 8 30 11 118 11 69 0 132 5 146 11 13 6 47 18
75 26 l50 15 2 -36 c6 -86 5 -299 -1 -333 -3 -21 -2 -38 3 -38 10 0 35 82 45
150 4 25 10 50 14 55 4 6 14 26 21 45 8 19 25 46 37 60 13 14 23 30 23 37 0
16 43 27 74 19 46 -11 62 20 69 133 4 73 26 101 79 101 33 0 98 -56 98 -84 0
-17 45 -103 65 -124 6 -7 19 -14 26 -15 20 -3 109 -60 109 -69 0 -5 5 -8 11
-8 17 0 59 -52 59 -72 0 -14 -5 -15 -32 -6 -18 6 -40 14 -48 18 -9 4 -36 11
-60 15 -72 12 -82 14 -133 26 -27 6 -74 9 -104 7 -75 -6 -86 -22 -77 -108 10
-94 29 -133 94 -193 31 -29 65 -65 75 -80 16 -25 16 -29 1 -51 -23 -36 -46
-39 -141 -17 -48 12 -113 21 -146 21 -53 0 -85 5 -184 29 -22 6 -41 2 -70 -13
-28 -14 -63 -21 -119 -23 -88 -2 -100 -9 -110 -64 -5 -27 -2 -40 9 -49 13 -11
13 -15 3 -22 -8 -5 10 -6 42 -2 30 3 133 8 229 11 196 6 312 -5 436 -42 44
-13 103 -25 130 -26 57 -2 126 -39 174 -95 36 -41 80 -45 141 -14 l40 20 0
104 0 104 -47 16 c-65 22 -112 52 -122 78 -5 13 -1 44 10 82 52 177 57 182
120 116 l39 -41 0 1435 c0 999 -3 1437 -11 1441 -5 4 -8 19 -4 33 4 22 0 29
-22 40 -15 6 -34 12 -43 12 -17 0 -89 49 -135 93 -17 15 -39 28 -50 29 -11 1
-27 2 -35 4 -8 1 -23 2 -32 3 -27 2 -21 28 7 35 26 7 32 20 16 31 -6 3 -7 28
-4 57 4 34 3 49 -4 45 -16 -10 -35 19 -44 69 -5 25 -24 71 -43 102 -43 71 -53
102 -33 102 9 0 17 3 19 8 2 4 18 15 37 26 39 21 45 16 61 -49 29 -119 64
-202 100 -240 21 -22 70 -77 110 -122 115 -134 110 -148 110 276 0 409 5 388
-85 351 -11 -4 -35 -13 -52 -20 -19 -7 -33 -20 -33 -29 0 -10 -3 -12 -8 -5 -4
6 -13 13 -21 15 -11 4 -10 8 3 22 11 10 13 17 6 17 -8 0 -10 9 -5 27 9 37 9
37 46 19 46 -23 57 -7 31 42 -11 22 -18 43 -14 47 4 3 -1 11 -11 16 -18 11
-24 59 -7 59 6 0 19 -5 30 -12 21 -13 36 -6 25 11 -3 6 -19 11 -34 11 -26 0
-29 4 -34 43 -3 23 -8 54 -12 70 -3 16 -1 27 5 27 6 0 0 11 -14 24 -15 13 -26
26 -26 30 0 14 -34 44 -46 39 -10 -4 -13 7 -12 43 0 41 2 45 13 31 11 -16 13
-16 19 -1 13 33 6 55 -22 67 -18 8 -26 18 -24 30 2 9 7 17 11 17 4 0 15 18 25
41 21 46 50 62 104 53 20 -3 44 -6 52 -8 9 -1 21 -6 28 -10 22 -14 62 2 62 25
0 15 -5 19 -19 14 -12 -3 -21 0 -25 11 -4 10 0 18 13 21 26 7 31 30 31 156 0
88 -3 107 -15 107 -8 0 -20 -8 -26 -19 -12 -17 -13 -17 -42 8 -16 14 -42 45
-57 68 -28 41 -28 42 -9 59 26 24 9 33 -55 31 -46 -2 -51 1 -88 43 -22 25 -50
68 -63 96 -23 53 -64 81 -102 71 -16 -4 -15 -6 5 -12 16 -5 20 -10 12 -15 -14
-8 8 -57 34 -79 9 -8 16 -19 16 -26 0 -7 14 -27 30 -45 17 -18 30 -36 30 -41
0 -5 15 -32 34 -61 18 -29 50 -88 71 -131 31 -63 42 -78 57 -74 25 7 23 -5 -5
-31 -24 -23 -51 -32 -29 -10 18 18 15 36 -9 48 -16 9 -26 8 -45 -5 -33 -21
-70 -13 -111 25 -18 17 -35 30 -38 30 -10 0 -44 44 -45 57 0 6 -13 21 -30 33
-16 12 -30 30 -30 40 0 17 -7 19 -47 17 -43 -2 -47 -5 -55 -32 l-8 -30 26 30
c27 32 23 18 -8 -27 -13 -18 -17 -36 -13 -49 5 -16 4 -19 -5 -14 -9 6 -11 4
-6 -4 6 -9 13 -8 29 6 20 18 20 17 12 -2 -12 -31 -13 -58 -3 -77 9 -18 -6 -38
-48 -66 -10 -7 0 -3 24 8 l43 21 -11 -20 c-7 -14 -7 -21 0 -21 5 0 10 -6 10
-14 0 -7 7 -19 16 -27 10 -8 14 -24 12 -47 -4 -29 -2 -33 15 -28 25 6 67 -10
67 -26 0 -8 -13 -13 -32 -13 -18 1 -36 -4 -40 -10 -8 -11 -12 -12 -59 -14 -26
-1 -30 -4 -26 -21 4 -15 0 -20 -14 -20 -26 0 -24 -19 4 -30 21 -8 21 -9 -9
-15 -26 -6 -32 -12 -30 -34 0 -14 8 -31 16 -38 13 -11 13 -12 -2 -13 -20 0
-26 -46 -8 -52 7 -2 7 -13 0 -35 -8 -21 -8 -38 -2 -49 7 -12 6 -22 -4 -32 -23
-22 -17 -49 14 -60 17 -7 21 -11 10 -11 -20 -1 -59 -36 -51 -45 4 -3 15 -6 25
-6 11 0 17 -3 15 -8 -3 -4 -20 -6 -39 -6 -23 1 -32 6 -29 15 2 8 4 20 4 27 0
6 7 12 14 12 9 0 12 7 9 18 -7 22 -9 89 -3 154 3 35 1 45 -10 41 -15 -6 -17 6
-4 41 7 17 7 26 -2 30 -8 3 -6 8 6 16 21 13 23 42 2 34 -9 -4 -16 3 -21 20 -3
14 -11 26 -17 26 -5 0 -2 9 8 20 10 11 15 23 12 27 -4 3 -7 0 -7 -8 0 -18 -30
25 -35 49 -2 10 1 25 6 33 6 10 9 4 9 -21 0 -26 3 -31 12 -22 18 18 32 14 17
-5 -12 -14 -12 -16 0 -11 8 2 18 16 22 31 8 29 1 35 -19 15 -16 -16 -23 -6
-24 31 -1 40 -10 39 -27 -1 -7 -19 -15 -28 -18 -20 -3 7 0 19 7 26 15 19 23
66 10 66 -5 0 -10 -12 -10 -27 -1 -27 -1 -27 -15 -9 -8 11 -11 22 -7 25 5 3
12 15 16 26 5 13 10 15 13 8 3 -7 11 -13 19 -13 8 0 14 6 14 13 -1 16 -30 55
-30 39 0 -22 -20 -12 -26 13 -5 20 -9 23 -20 14 -11 -9 -14 -9 -14 0 0 6 10
15 23 20 18 7 23 4 28 -13 5 -14 7 -10 6 16 0 21 -3 35 -7 33 -8 -5 -33 45
-26 53 3 2 13 1 23 -2 15 -6 15 -9 3 -16 -20 -12 -10 -19 15 -10 18 6 18 8 -7
33 -22 22 -24 27 -10 28 10 0 12 3 5 6 -8 2 -13 22 -13 45 0 21 -7 46 -15 54
-16 17 -9 48 10 40 8 -3 16 6 19 20 8 30 1 44 -22 45 -10 1 -7 4 7 8 14 4 26
12 29 19 2 8 -3 10 -15 6 -16 -6 -16 -5 2 9 12 10 15 16 7 17 -7 0 -10 5 -7
11 11 16 -15 96 -30 96 -8 0 -12 -4 -9 -9 3 -4 -2 -8 -11 -8 -9 0 -13 -4 -10
-10 6 -10 -35 -73 -43 -65 -3 2 3 17 12 32 11 17 -3 7 -33 -24 -49 -49 -67
-58 -36 -17 8 10 15 27 15 37 0 10 4 16 8 13 8 -5 96 77 92 85 -1 4 12 44 27
79 12 30 13 50 0 50 -8 0 -7 3 3 10 12 8 12 10 -3 16 -9 3 -17 17 -17 30 0 13
-4 24 -10 24 -5 0 -10 7 -10 16 0 10 6 14 15 10 8 -3 15 -1 15 3 0 7 -23 21
-35 21 -1 0 -5 -12 -8 -27 -3 -16 -13 -37 -22 -48 l-17 -20 7 20 c4 11 9 35
12 53 5 28 14 36 43 34 3 0 5 17 5 38 1 29 -3 36 -13 32 -11 -4 -13 0 -8 15 4
11 1 33 -5 49 -6 16 -13 40 -15 54 -12 64 3 60 -210 60 l-194 0 -1 -122z m615
-1843 c-9 -14 -20 -25 -25 -25 -6 0 -4 -301 2 -355 1 -5 -2 -22 -5 -36 -6 -19
-3 -28 8 -32 20 -8 74 8 97 29 16 15 19 14 32 -8 22 -34 45 -108 57 -185 12
-75 17 -84 30 -63 8 13 10 13 10 -1 0 -18 23 -69 31 -69 5 0 5 -49 0 -82 -1
-5 -10 -8 -21 -8 -24 0 -26 -22 -4 -40 20 -18 44 -76 44 -110 0 -28 -20 -52
-55 -64 -19 -7 -19 -8 -2 -17 9 -6 17 -17 17 -26 0 -9 15 -31 34 -49 19 -18
40 -47 47 -63 8 -17 17 -31 21 -31 5 0 8 -8 8 -17 0 -10 7 -27 15 -37 24 -31
19 -87 -10 -119 -46 -48 -91 -29 -130 56 -10 21 -35 54 -56 74 -21 20 -35 42
-32 50 3 8 0 13 -8 11 -20 -5 -59 -66 -59 -93 0 -30 -15 -32 -30 -5 -8 14 -6
30 6 60 9 22 14 43 12 45 -3 3 -19 -2 -36 -11 -18 -8 -37 -12 -44 -7 -7 4 -26
8 -43 9 -16 1 -54 4 -82 8 -53 7 -64 1 -41 -22 8 -8 8 -12 1 -12 -6 0 -19 17
-28 38 -10 20 -27 45 -39 55 -17 15 -18 21 -8 37 7 11 8 20 3 20 -4 0 -7 12
-5 28 2 15 1 21 -2 15 -9 -20 -26 -15 -19 6 4 12 1 18 -7 17 -7 0 -14 4 -15 9
-2 6 1 10 6 10 5 0 12 3 16 7 4 4 14 4 23 1 14 -4 15 -3 3 5 -12 9 -13 15 -3
37 14 30 16 46 3 26 -5 -7 -14 -10 -20 -6 -9 5 -9 10 0 21 9 11 8 14 -6 14
-11 0 -15 5 -11 15 7 18 -10 20 -18 3 -3 -7 -3 2 0 21 5 25 3 32 -7 29 -7 -2
-16 -15 -20 -29 -4 -14 -6 0 -6 36 0 50 2 56 9 33 10 -29 22 -35 34 -17 3 6 0
15 -7 20 -10 6 -8 9 9 9 23 0 30 14 12 23 -6 3 -5 4 2 3 7 -1 19 -13 25 -27 7
-13 13 -19 13 -14 0 6 16 11 36 13 23 1 43 10 55 25 17 20 18 21 19 3 0 -18 1
-18 20 -1 18 16 18 19 3 30 -14 11 -15 13 -1 21 8 5 18 16 21 24 3 8 6 0 6
-17 1 -18 5 -33 11 -33 5 0 6 8 3 17 -5 12 -2 15 9 10 18 -6 33 29 17 39 -13
8 -11 34 2 34 6 0 9 -7 5 -15 -3 -8 -1 -15 5 -15 12 0 16 12 22 68 4 33 2 42
-10 42 -10 0 -14 6 -10 19 2 11 -3 32 -13 48 -10 17 -14 36 -10 48 4 11 5 25
3 30 -2 6 6 21 17 33 15 16 17 22 7 22 -8 0 -20 7 -27 15 -10 12 -10 15 4 15
9 0 16 -5 16 -11 0 -5 4 -8 10 -4 13 8 1 35 -16 35 -8 0 -14 5 -14 10 0 6 4
10 9 10 5 0 8 14 6 30 -2 17 0 30 5 30 6 0 10 5 10 11 0 6 -9 8 -20 4 -13 -4
-26 0 -37 11 -16 16 -16 16 5 10 18 -6 22 -3 22 14 0 14 -4 19 -12 15 -7 -4
-4 1 6 9 15 12 22 13 27 4 9 -14 19 44 16 85 -2 16 -9 32 -17 37 -12 8 -11 10
6 10 11 0 29 9 39 20 26 28 39 25 19 -5z m-159 -1604 c-3 -11 1 -26 11 -35 13
-13 14 -19 4 -31 -9 -11 -9 -15 -1 -15 6 0 11 -17 11 -37 0 -21 6 -46 14 -55
11 -16 17 -16 65 -3 29 7 61 21 71 30 17 16 20 15 39 -4 33 -33 31 -116 -5
-197 -13 -30 -24 -67 -24 -82 0 -18 -14 -42 -40 -71 -23 -25 -40 -54 -40 -67
0 -24 31 -64 51 -64 5 0 29 -9 52 -19 42 -19 109 -25 207 -17 107 8 116 -30
35 -141 -30 -42 -55 -79 -55 -84 0 -15 -42 -22 -51 -8 -4 7 -11 10 -15 7 -3
-4 -22 -1 -42 7 -37 16 -39 16 -92 -31 -23 -20 -61 -34 -103 -39 -29 -3 -54
57 -39 90 7 14 12 35 12 47 0 38 -44 112 -100 167 -30 30 -56 59 -57 65 -14
53 -14 78 1 101 10 16 12 25 5 25 -6 0 -9 7 -5 15 3 9 0 15 -9 15 -8 0 -15 5
-15 10 0 6 -9 10 -19 10 -18 0 -47 -51 -42 -74 1 -4 -5 -18 -13 -31 -8 -12
-13 -38 -12 -57 3 -24 -3 -41 -20 -61 -13 -15 -25 -27 -28 -27 -9 0 0 71 10
78 6 4 16 28 24 55 7 26 16 50 21 53 4 2 6 11 3 19 -4 8 0 17 7 20 8 3 15 20
16 38 1 17 8 46 17 62 9 17 16 37 16 46 0 9 14 49 30 89 17 40 30 77 30 82 0
4 11 26 25 48 14 22 25 48 25 58 0 20 8 32 22 32 5 0 7 -9 3 -19z"/>
<path d="M9938 6495 c-2 -2 -66 -6 -143 -7 l-138 -3 -23 -44 c-12 -25 -30 -51
-39 -57 -16 -12 -29 -51 -42 -132 -3 -18 -2 -58 2 -88 5 -44 14 -63 41 -92 19
-20 34 -40 34 -44 0 -4 5 -8 11 -8 7 0 9 11 4 33 -3 17 -7 48 -8 67 -1 19 -6
41 -11 49 -7 11 -5 13 8 8 14 -6 15 -3 6 13 -6 11 -17 20 -24 20 -8 0 -16 8
-18 18 -4 15 -1 18 21 14 28 -6 51 -24 51 -42 0 -12 121 -129 131 -127 3 1 14
-6 23 -16 10 -10 20 -16 22 -14 8 7 -15 57 -26 57 -5 0 -10 9 -10 20 0 13 5
18 15 14 8 -4 15 -10 15 -15 0 -6 10 -20 21 -32 12 -12 28 -37 36 -55 7 -18
19 -32 26 -29 13 4 18 77 5 77 -6 0 -8 6 -6 12 3 7 -4 21 -14 32 -19 21 -25
76 -8 76 6 0 10 10 11 23 0 21 1 21 9 2 6 -14 9 -16 10 -5 2 8 2 19 1 23 -1 5
10 0 25 -12 15 -12 31 -21 35 -21 12 0 11 183 -1 216 -12 30 -45 75 -52 69z"/>
<path d="M4725 6481 c-5 -9 -2 -17 9 -23 24 -14 21 -47 -4 -41 -11 3 -20 10
-20 16 0 6 -6 3 -13 -8 -8 -10 -19 -15 -25 -11 -25 15 -11 -41 17 -68 41 -39
95 -56 137 -43 37 11 45 27 14 27 -12 0 -22 9 -26 24 -3 14 -12 27 -20 30 -20
8 -17 26 4 27 10 0 12 3 5 6 -7 2 -13 11 -13 18 0 12 -20 25 -37 24 -4 0 -10
7 -13 17 -5 14 -8 15 -15 5z"/>
<path d="M5182 6438 c-8 -8 -8 -17 -1 -30 9 -17 8 -19 -8 -14 -14 5 -23 -1
-33 -19 -7 -13 -22 -27 -32 -31 -19 -6 -19 -7 -2 -25 16 -18 16 -19 -3 -19
-11 0 -25 -10 -31 -25 -6 -14 -16 -25 -22 -25 -5 0 -10 -7 -10 -17 0 -9 -11
-36 -26 -60 -14 -24 -23 -47 -19 -52 3 -5 -9 -21 -25 -35 l-30 -25 22 -20 c14
-14 33 -20 54 -18 28 2 33 6 31 25 -1 12 -5 22 -9 22 -4 0 -8 4 -8 10 0 5 18
9 40 7 22 -1 40 -5 40 -9 0 -5 -6 -8 -14 -8 -7 0 -19 -6 -25 -14 -9 -10 -6
-17 11 -28 29 -19 108 -21 108 -2 0 7 3 20 7 30 4 12 3 15 -5 10 -7 -4 -12 -3
-12 3 0 5 5 11 11 13 5 2 13 24 16 48 3 25 13 52 22 60 9 8 21 24 27 35 6 11
26 28 45 38 l34 19 -69 -5 c-77 -5 -70 10 8 19 47 6 86 -8 86 -31 0 -8 -15
-49 -34 -92 -19 -43 -38 -91 -42 -106 -6 -27 -5 -28 13 -16 26 16 80 121 93
179 8 39 6 49 -13 77 -12 17 -23 30 -26 28 -4 -4 -53 27 -81 52 -57 50 -77 62
-88 51z"/>
<path d="M4540 6358 c-19 -21 -20 -23 -3 -30 14 -7 12 -7 -6 -4 -13 3 -34 1
-47 -4 -25 -10 -139 -13 -247 -7 -118 7 -444 -64 -522 -114 -16 -10 -44 -26
-61 -35 -17 -9 -35 -24 -41 -34 -10 -15 -8 -16 28 -10 21 4 44 12 51 17 7 6
26 13 42 17 23 6 27 4 22 -9 -3 -10 8 -31 33 -58 21 -23 42 -52 45 -64 7 -21
4 -23 -26 -23 -39 0 -59 -15 -51 -37 5 -13 2 -13 -16 -3 -25 13 -31 10 -35
-15 -1 -9 -9 -21 -17 -26 -9 -7 -1 -8 26 -3 22 4 45 10 50 14 6 4 35 13 65 20
30 7 62 17 70 21 131 66 147 71 197 70 67 -2 253 49 253 70 0 15 -21 21 -35 9
-12 -10 -15 -9 -15 3 0 13 -11 15 -72 10 -40 -3 -80 -9 -89 -14 -9 -5 -21 -3
-27 3 -7 7 -12 8 -12 3 0 -12 -123 -15 -130 -4 -8 12 -51 -2 -43 -14 3 -6 7
-23 8 -39 2 -23 0 -26 -11 -17 -11 9 -19 8 -36 -7 -15 -14 -22 -16 -25 -6 -3
6 -9 10 -14 6 -5 -3 -9 2 -9 10 0 9 -5 16 -11 16 -5 0 -7 5 -3 11 3 6 0 15 -7
20 -8 5 -9 9 -3 9 12 0 12 29 0 48 -12 19 95 13 166 -9 59 -18 91 -16 120 8
42 37 202 56 303 37 26 -5 35 -3 35 7 0 8 11 15 24 15 20 2 107 74 89 74 -3 0
5 11 19 23 14 13 31 34 37 45 11 20 9 22 -18 22 -18 0 -38 -9 -51 -22z"/>
<path d="M5933 6350 c-31 -7 -87 -49 -128 -96 -11 -13 -30 -53 -43 -89 l-23
-65 21 -22 c20 -22 25 -40 14 -51 -7 -6 -45 12 -56 28 -4 6 -8 6 -8 2 0 -4 -8
-3 -18 2 -15 8 -23 3 -45 -24 -39 -49 -45 -87 -15 -100 12 -5 27 -23 33 -39 8
-24 6 -31 -15 -48 -19 -16 -21 -21 -10 -28 17 -10 16 -11 -32 -34 -21 -9 -38
-22 -38 -27 0 -7 -16 -9 -42 -6 -32 4 -49 0 -66 -14 -13 -10 -40 -21 -61 -25
-46 -8 -73 -22 -66 -34 3 -6 0 -7 -8 -4 -11 4 -17 -6 -22 -38 -4 -24 -16 -63
-26 -87 -26 -61 -24 -92 9 -123 28 -27 70 -52 87 -53 6 0 13 -51 16 -120 10
-187 60 -306 178 -422 28 -28 51 -55 51 -61 0 -14 18 -25 44 -26 18 -1 21 -8
24 -48 3 -43 1 -48 -17 -48 -23 0 -91 30 -91 40 0 6 -15 27 -52 69 -29 34
-133 -142 -172 -291 -22 -86 8 -320 51 -383 7 -11 13 -30 13 -42 0 -13 5 -23
10 -23 6 0 10 -4 10 -10 0 -5 9 -19 20 -30 11 -11 20 -16 20 -11 0 6 -4 13
-10 16 -19 12 -10 25 14 19 13 -3 62 4 108 16 46 12 95 24 109 26 14 2 62 15
108 29 64 20 84 32 93 51 6 13 15 24 20 24 4 0 7 3 6 8 -1 4 4 25 11 48 12 37
11 48 -12 115 -17 47 -22 78 -16 83 13 14 11 29 -7 52 -14 18 -15 18 -8 -6 l6
-25 -21 27 c-11 14 -21 31 -21 36 0 6 -24 84 -54 174 -30 90 -64 196 -76 236
-11 40 -27 75 -34 78 -13 5 -14 25 -2 62 9 27 18 28 42 1 10 -11 26 -18 35
-16 16 4 29 -19 33 -56 1 -11 29 -27 37 -21 9 5 49 -80 49 -102 0 -8 9 -31 20
-51 11 -21 20 -45 21 -53 0 -8 10 -35 22 -60 l22 -45 60 -3 c161 -8 210 -28
172 -70 -9 -10 -15 -21 -12 -24 3 -3 -8 -8 -25 -11 -21 -5 -37 -18 -51 -42
-12 -19 -25 -33 -29 -30 -4 3 -14 -3 -21 -12 -10 -11 -11 -17 -3 -20 7 -2 10
-13 7 -23 -7 -28 35 -110 57 -110 11 0 17 -7 16 -17 -1 -13 5 -17 18 -15 17 3
18 1 8 -11 -11 -12 -3 -23 45 -65 68 -60 126 -77 151 -46 14 18 14 18 9 -3 -7
-29 -3 -31 107 -60 156 -41 201 -52 205 -47 2 2 10 -1 17 -7 11 -9 12 -1 8 43
-6 60 9 49 20 -15 10 -54 29 -41 40 26 5 35 13 57 21 57 7 0 16 7 19 16 4 9 9
14 12 11 3 -3 30 4 61 14 30 11 76 21 103 23 26 2 57 9 70 16 40 21 163 13
243 -16 40 -15 99 -28 132 -30 33 -2 78 -6 101 -9 28 -5 45 -3 55 7 8 8 29 20
47 27 17 7 32 18 32 23 0 5 4 7 9 4 4 -3 25 9 45 27 27 25 35 38 30 52 -5 13
-4 16 5 10 10 -6 11 -2 5 16 -12 39 -13 150 -1 212 10 52 15 60 46 74 21 11
58 16 99 16 44 0 71 4 80 14 8 8 12 17 8 20 -3 3 -1 12 5 19 8 10 6 20 -8 38
-10 14 -21 26 -25 26 -5 0 -17 9 -28 20 -11 11 -20 18 -20 15 0 -3 -9 -1 -21
5 -21 12 -103 4 -95 -9 6 -10 -4 -23 -37 -48 -56 -43 -139 -5 -143 66 -3 62
15 65 116 24 13 -5 31 -10 57 -14 21 -3 44 2 39 9 -2 4 11 6 31 4 32 -4 35 -3
28 17 -5 18 0 24 29 36 41 17 76 19 76 5 0 -6 6 -9 13 -8 23 5 10 -75 -15 -94
-23 -18 -23 -18 11 -11 34 6 34 6 28 -26 -6 -29 -5 -32 12 -26 14 4 21 0 26
-16 4 -11 14 -29 23 -40 10 -10 28 -31 42 -47 28 -33 53 -31 44 2 -10 40 43
133 70 123 22 -9 64 15 69 39 2 12 -1 21 -7 21 -40 -1 -46 3 -35 21 15 24 -14
72 -45 73 -24 1 -123 114 -146 166 -10 22 -25 35 -52 44 -21 6 -45 19 -55 28
-10 9 -24 16 -30 17 -38 3 -43 5 -43 18 0 8 -14 19 -30 25 -17 5 -33 17 -36
26 -3 8 -11 15 -16 15 -6 0 -16 7 -22 15 -6 9 -25 15 -41 15 -53 0 -85 -5 -85
-12 0 -5 -5 -8 -11 -8 -20 0 -84 -34 -96 -50 -6 -9 -48 -52 -93 -96 -83 -81
-105 -113 -101 -151 1 -14 -5 -24 -18 -28 -12 -3 -21 -11 -21 -16 0 -5 -7 -9
-15 -9 -9 0 -27 -7 -40 -16 -19 -12 -24 -24 -23 -56 0 -22 7 -52 14 -67 8 -14
14 -31 14 -38 0 -7 6 -16 14 -20 24 -15 66 -105 55 -119 -6 -7 -9 -37 -8 -66
4 -81 -15 -124 -63 -149 -61 -31 -127 -49 -183 -49 -47 0 -125 23 -153 45 -32
25 -53 51 -58 72 -4 13 -10 23 -15 23 -8 0 -35 54 -52 103 -9 24 3 77 17 77
15 1 47 46 47 68 1 9 -7 46 -16 82 -27 110 6 271 96 458 32 68 59 128 59 134
0 7 -5 26 -11 43 -16 44 -7 73 41 123 22 24 40 51 40 60 0 10 8 22 19 29 11 7
28 42 40 82 32 107 93 150 259 186 56 13 66 12 103 -4 67 -30 106 -6 54 33
-14 10 -25 24 -25 31 0 7 -7 15 -15 19 -8 3 -15 11 -15 19 0 38 -150 79 -300
80 -75 1 -180 -20 -180 -36 0 -5 -13 -6 -28 -2 -23 5 -30 1 -39 -17 -19 -39
-21 -78 -6 -94 13 -12 12 -18 -5 -41 -22 -32 -82 -159 -82 -175 0 -6 -17 -33
-37 -61 -53 -71 -61 -89 -68 -152 -4 -30 -11 -57 -15 -60 -5 -3 -14 -37 -20
-75 -6 -39 -15 -70 -20 -70 -4 0 -11 -15 -14 -34 -4 -19 -21 -52 -39 -75 -41
-51 -142 -115 -171 -107 -20 5 -19 4 3 -15 18 -15 20 -19 7 -19 -9 0 -19 -7
-22 -15 -4 -9 -16 -15 -28 -14 -38 3 -54 -1 -59 -15 -4 -10 -1 -13 9 -9 7 3
14 0 14 -6 0 -9 5 -9 21 0 19 10 20 8 14 -10 -7 -24 3 -64 14 -57 4 3 16 -10
27 -29 10 -18 35 -58 55 -87 20 -29 48 -74 62 -100 25 -45 25 -49 11 -83 -24
-57 -54 -47 -114 40 -19 28 -43 56 -53 64 -11 7 -25 28 -33 46 -8 21 -29 42
-56 57 -41 23 -68 58 -34 45 18 -7 23 17 6 28 -6 4 -8 10 -5 14 2 5 -7 21 -20
35 -14 15 -25 30 -25 33 0 4 -7 15 -16 24 -16 18 -14 18 48 12 44 -4 67 -2 72
6 4 6 0 11 -9 11 -12 0 -15 6 -10 19 4 14 -2 25 -22 39 -15 10 -34 18 -41 16
-7 -1 -8 0 -2 3 18 9 10 25 -10 20 -14 -4 -20 0 -20 11 0 13 -4 11 -16 -6 -8
-12 -13 -26 -10 -31 3 -5 -1 -14 -9 -21 -8 -7 -15 -20 -15 -30 0 -20 -27 -46
-37 -36 -4 4 1 32 11 64 10 31 20 63 22 71 8 27 -17 132 -48 197 -36 78 -88
166 -109 185 -66 63 -91 80 -105 68 -8 -6 -15 -10 -17 -8 -27 48 -28 51 -15
47 7 -3 18 2 25 11 11 14 15 13 38 -14 62 -72 81 -92 100 -105 26 -20 75 -92
75 -112 0 -8 7 -21 15 -28 8 -7 15 -19 15 -26 0 -8 9 -14 20 -14 16 0 19 5 16
25 -3 14 -1 25 4 25 6 0 13 12 16 28 4 15 15 43 25 62 16 30 17 41 7 75 -7 22
-20 54 -29 71 -11 20 -14 36 -8 45 5 8 9 23 9 33 0 27 57 107 93 131 43 28 44
42 5 58 -18 8 -46 29 -62 46 -27 29 -30 37 -30 111 -1 60 -4 79 -13 75 -7 -2
-13 1 -13 8 0 7 -7 -1 -15 -16 -8 -15 -12 -33 -9 -40 5 -15 -39 -57 -60 -57
-8 0 -16 -5 -18 -10 -2 -6 -27 -13 -56 -17 -48 -5 -54 -4 -77 21 -20 22 -25
37 -25 79 0 30 6 62 15 73 8 12 11 24 8 28 -3 3 1 14 11 25 16 18 14 71 -3 71
-4 0 -13 16 -21 35 -8 19 -16 35 -19 34 -3 -1 -20 -4 -38 -9z m-375 -904 c-1
-13 3 -31 11 -40 11 -13 11 -19 1 -31 -17 -21 2 -19 31 4 13 10 44 21 68 24
24 3 47 11 51 17 6 9 13 9 29 1 16 -9 21 -9 21 1 0 7 6 4 14 -7 22 -33 45
-134 49 -226 l5 -87 -29 8 c-34 10 -106 -11 -101 -29 1 -6 -5 -11 -14 -11 -8
0 -12 4 -9 10 3 5 -5 25 -18 42 -48 64 -86 144 -112 235 -14 51 -24 97 -20
103 12 19 26 10 23 -14z"/>
<path d="M8347 6030 c-17 -20 -16 -22 18 -55 19 -19 40 -35 47 -35 9 0 9 -3
-2 -10 -12 -8 -10 -10 8 -10 13 0 20 4 17 10 -3 6 0 10 9 10 8 0 16 -5 18 -11
2 -7 14 -8 38 -1 l35 9 -25 12 c-27 13 1 9 33 -4 10 -4 17 -3 17 4 0 6 -4 11
-8 11 -16 0 -49 35 -45 48 3 7 -5 12 -22 12 -18 0 -24 -4 -19 -12 6 -10 4 -10
-8 0 -9 7 -22 11 -29 10 -8 -2 -13 3 -11 10 1 6 -2 12 -8 12 -5 0 -10 -4 -10
-10 0 -5 -4 -10 -10 -10 -5 0 -10 7 -10 15 0 21 -12 19 -33 -5z"/>
<path d="M2270 6030 c0 -5 -9 -10 -21 -10 -11 0 -35 -10 -52 -23 -18 -12 -41
-28 -52 -35 -91 -57 -114 -75 -119 -96 -3 -14 -34 -43 -78 -74 -72 -49 -116
-92 -152 -146 -9 -15 -26 -36 -37 -47 -10 -10 -19 -27 -19 -37 0 -10 -7 -27
-15 -38 -13 -17 -14 -17 -15 -1 0 9 -4 17 -10 17 -17 0 -11 -53 9 -94 11 -21
23 -52 27 -69 3 -18 13 -45 21 -60 10 -20 11 -32 4 -41 -8 -10 -6 -19 8 -34
10 -12 22 -22 27 -22 15 0 102 -103 98 -115 -3 -7 7 -20 22 -30 16 -10 29 -14
31 -8 2 6 10 18 17 28 12 17 14 17 38 1 31 -20 82 -18 128 6 19 10 41 18 48
18 7 0 15 7 18 15 4 8 15 15 25 15 11 0 19 7 19 17 0 9 -3 13 -6 10 -4 -3 -18
3 -32 13 -13 11 -32 20 -41 20 -9 0 -27 11 -39 25 -21 22 -23 31 -18 77 3 29
6 60 7 68 1 8 -3 29 -9 46 -10 30 -9 32 27 44 32 10 47 9 109 -10 43 -12 70
-25 66 -31 -3 -6 0 -9 7 -8 8 2 25 -3 38 -10 19 -11 21 -15 10 -23 -10 -6 -6
-7 11 -2 14 4 33 7 42 6 20 -1 68 52 68 74 0 23 -25 66 -54 93 -14 14 -26 32
-26 41 0 20 -68 90 -87 90 -16 0 -47 67 -63 137 -15 65 -20 144 -10 138 5 -3
18 10 29 29 24 37 26 46 11 46 -5 0 -10 -4 -10 -10z"/>
<path d="M5003 5993 c-29 -5 -30 -32 -3 -61 24 -25 100 -169 100 -189 0 -7 3
-13 8 -13 4 0 7 -32 7 -70 0 -39 3 -70 8 -70 7 0 11 23 8 48 -1 6 3 12 9 12 6
0 9 4 5 9 -3 5 -1 12 5 16 5 3 10 18 10 33 -1 26 -1 26 -15 8 -12 -16 -15 -17
-15 -4 0 8 7 22 16 29 12 10 14 23 10 50 -4 25 -2 39 7 42 9 3 9 7 0 19 -7 8
-10 18 -6 21 9 10 12 107 3 107 -5 0 -11 -6 -13 -12 -3 -8 -6 -5 -6 5 -1 10
-6 15 -12 12 -6 -4 -8 -13 -5 -21 7 -17 -10 -28 -18 -12 -5 10 -7 10 -12 0 -3
-7 -12 -18 -19 -26 -8 -7 -11 -16 -8 -20 4 -3 1 -6 -5 -6 -22 0 -23 21 0 40
13 11 17 19 11 20 -7 0 -13 -4 -13 -10 0 -5 -10 -10 -22 -10 -19 0 -20 2 -8
10 12 8 11 10 -8 10 -19 0 -21 2 -10 14 10 11 16 11 27 2 11 -9 13 -8 10 3 -6
17 -15 20 -46 14z"/>
<path d="M8405 5891 c3 -8 3 -12 -1 -9 -4 4 -18 -1 -31 -12 -22 -17 -36 -18
-147 -13 -95 4 -126 2 -137 -8 -8 -8 -31 -23 -52 -33 -46 -24 -53 -47 -37
-128 7 -35 15 -80 17 -101 5 -40 -23 -173 -39 -183 -13 -9 -6 -114 9 -114 6 0
25 -11 40 -24 16 -14 41 -26 56 -28 32 -5 48 -18 21 -18 -16 0 -17 -2 -4 -10
8 -5 28 -10 43 -10 27 0 28 2 22 32 -4 17 -21 56 -37 87 -70 133 -85 226 -41
256 12 9 28 22 36 29 33 34 112 60 180 59 64 0 70 -2 124 -45 46 -36 75 -68
78 -85 1 -1 33 13 73 32 67 32 71 36 60 55 -7 11 -32 30 -55 42 -24 13 -43 27
-43 32 0 5 6 4 13 -1 6 -5 28 -6 47 -3 l35 7 -30 13 -30 14 33 4 c31 3 33 4
15 17 -10 8 -28 15 -40 15 -13 0 -23 5 -23 10 0 6 14 10 31 10 27 0 29 2 15
15 -8 8 -26 15 -40 15 -14 0 -26 5 -26 10 0 6 8 10 17 10 24 0 4 17 -27 23
-18 3 -15 4 10 4 53 0 60 2 60 14 0 8 -19 10 -60 6 -36 -3 -63 -1 -66 5 -4 6
2 8 17 3 18 -6 21 -4 13 5 -6 6 -32 13 -58 14 -39 2 -46 0 -41 -13z"/>
<path d="M3346 5763 c-4 -4 -22 -6 -41 -5 -18 2 -36 -1 -39 -6 -3 -6 -15 -8
-26 -5 -14 4 -20 0 -20 -11 0 -20 -38 -59 -50 -51 -5 3 -17 2 -27 -3 -10 -5
-36 -18 -57 -28 l-40 -19 35 -3 c18 -1 47 -8 62 -14 27 -10 31 -8 69 32 39 41
42 42 137 55 53 7 113 20 134 29 44 19 51 42 10 31 -56 -14 -113 -17 -113 -6
0 12 -23 15 -34 4z"/>
<path d="M2658 5378 c-19 -24 -38 -54 -42 -68 -16 -51 -48 -109 -64 -114 -18
-6 -56 -2 -82 6 -42 15 -94 27 -99 23 -4 -2 -5 -22 -3 -44 l4 -40 46 6 c30 4
43 3 39 -4 -4 -6 17 -18 51 -28 31 -9 70 -21 85 -25 41 -13 87 -1 99 26 6 13
20 24 31 24 10 0 21 9 24 20 3 12 14 20 27 20 26 0 66 26 66 44 0 7 9 21 20
31 11 10 20 22 20 28 0 21 -146 137 -173 137 -8 0 -30 -19 -49 -42z"/>
<path d="M8574 5202 c-13 -10 -74 -88 -74 -97 0 -3 -7 -13 -15 -21 -8 -9 -15
-24 -15 -34 0 -20 33 -36 50 -25 6 4 22 -1 36 -10 13 -9 29 -13 33 -10 5 3 20
1 33 -4 12 -4 32 -5 43 0 11 4 14 8 8 8 -7 1 -13 8 -13 16 0 9 -11 20 -24 25
-18 7 -22 14 -19 34 3 14 13 27 22 29 14 4 14 5 -1 6 -10 0 -18 6 -18 12 0 5
6 7 13 3 6 -4 1 5 -12 20 l-25 26 35 -5 c19 -3 27 -2 19 1 -8 4 -27 13 -41 20
-14 7 -30 9 -35 6z"/>
<path d="M2891 4981 c-7 -5 -11 -13 -7 -19 3 -6 -2 -8 -12 -5 -11 2 -25 -1
-33 -9 -8 -7 -27 -19 -42 -26 -15 -6 -30 -19 -34 -27 -3 -9 0 -57 6 -108 10
-80 16 -96 41 -121 37 -38 49 -27 30 27 -15 40 -13 81 5 147 5 17 4 21 -3 12
-7 -10 -9 -5 -8 16 1 17 5 28 9 25 5 -3 8 3 7 13 -4 34 0 37 19 20 17 -16 19
-16 26 1 7 16 15 63 12 63 -1 0 -8 -4 -16 -9z"/>
<path d="M1548 4813 c2 -54 9 -107 15 -118 15 -27 28 -104 34 -197 4 -73 3
-77 -20 -93 -14 -9 -36 -16 -49 -17 -45 -2 -120 -28 -149 -53 -36 -30 -40 -30
-68 -7 -27 21 -44 85 -27 102 8 8 7 14 -6 21 -23 13 -23 31 2 59 11 13 20 26
20 30 0 3 16 12 35 20 19 8 35 18 35 22 0 5 17 6 38 2 20 -4 34 -3 30 1 -5 5
2 13 15 20 23 12 24 15 12 53 -5 16 -2 22 9 22 9 0 16 7 16 15 0 8 -6 15 -13
15 -7 0 -23 11 -34 24 -12 13 -38 32 -57 41 -35 17 -38 17 -57 -1 -14 -12 -38
-19 -68 -20 -80 -3 -123 -14 -144 -37 -16 -19 -18 -30 -12 -77 4 -30 7 -65 6
-78 0 -13 3 -21 8 -18 11 7 22 -31 14 -50 -3 -8 -9 -11 -14 -8 -13 8 -11 -20
2 -33 9 -9 5 -26 -18 -70 -33 -67 -41 -139 -18 -183 9 -17 11 -31 5 -35 -5 -3
-14 -22 -19 -42 -13 -45 1 -75 32 -71 12 1 28 -2 36 -6 9 -6 18 -4 25 6 8 10
37 19 79 23 37 4 70 11 73 16 3 6 15 -4 27 -20 12 -17 34 -45 50 -64 21 -26
28 -46 29 -83 2 -64 24 -153 43 -174 8 -9 15 -22 15 -28 0 -32 90 -43 140 -17
34 18 101 30 99 18 -1 -4 0 -10 1 -13 4 -11 12 -47 17 -76 4 -27 -1 -36 -50
-79 -64 -56 -78 -60 -209 -56 -106 2 -111 0 -161 -73 -15 -22 -23 -25 -58 -21
-45 6 -79 24 -79 42 0 7 -9 22 -20 33 -11 11 -20 25 -20 30 0 6 -4 10 -9 10
-5 0 -17 7 -26 16 -24 24 -43 3 -26 -29 7 -13 11 -27 10 -33 -1 -5 1 -16 4
-24 3 -8 7 -24 9 -34 2 -10 12 -24 23 -30 11 -6 23 -16 28 -23 10 -17 76 -34
102 -27 12 3 46 -1 76 -9 30 -7 79 -15 109 -16 30 -1 59 -6 65 -10 14 -10 76
2 75 14 -1 6 6 12 15 13 19 4 62 -37 57 -53 -2 -5 8 1 22 14 14 14 26 35 26
48 0 13 5 23 10 23 6 0 10 -6 10 -12 0 -10 3 -9 9 1 12 19 28 6 36 -29 4 -17
17 -38 30 -46 35 -23 39 -38 46 -174 3 -69 13 -154 22 -190 19 -78 19 -126 1
-161 -20 -39 -38 -41 -70 -8 -25 26 -28 38 -30 97 -3 97 -18 146 -51 161 -20
9 -28 10 -31 1 -2 -6 -26 -37 -54 -68 -43 -49 -49 -61 -45 -89 5 -27 -2 -43
-36 -90 -100 -138 -120 -176 -110 -212 5 -21 35 -34 69 -31 54 6 76 -3 128
-49 61 -52 148 -101 191 -105 14 -1 13 -21 -1 -21 -20 0 -92 -86 -98 -117 -3
-17 -6 -50 -6 -73 0 -48 -9 -55 -73 -60 -22 -2 -40 -5 -43 -7 -2 -2 15 -30 36
-62 22 -32 40 -56 40 -53 0 3 14 -7 30 -21 17 -15 30 -30 30 -34 0 -5 10 -29
22 -54 25 -55 17 -79 -28 -80 -49 -1 -71 -13 -98 -54 -23 -35 -29 -38 -65 -36
-29 2 -48 12 -75 38 -20 19 -36 38 -36 42 0 18 -76 71 -115 80 -16 4 -50 9
-74 12 -24 3 -51 9 -60 13 -9 5 -45 7 -81 4 -120 -9 -422 50 -445 86 -3 6 -15
11 -26 11 -10 0 -19 5 -19 11 0 6 9 8 20 4 11 -3 20 -2 20 2 0 14 63 33 108
33 88 0 249 76 333 157 35 34 142 79 159 68 5 -3 11 -1 15 5 3 5 15 10 25 10
13 0 22 10 28 33 6 25 14 33 35 35 15 2 27 7 27 12 0 5 9 11 19 15 21 6 33 59
17 75 -7 7 -5 10 7 10 25 0 21 17 -5 24 -14 3 -42 -4 -74 -19 -58 -28 -72 -30
-111 -13 -22 9 -179 131 -203 158 -3 3 -30 17 -60 32 -57 28 -111 59 -120 68
-6 6 -116 80 -142 95 -10 6 -45 29 -78 52 -33 24 -63 43 -66 43 -2 0 -28 18
-56 40 -28 22 -81 58 -118 80 -38 22 -70 43 -72 48 -5 11 -131 102 -218 157
-41 26 -87 59 -102 73 l-28 26 0 -75 c0 -62 3 -77 20 -92 11 -9 20 -23 20 -31
0 -17 -24 -38 -33 -29 -4 3 -7 -334 -7 -749 l0 -756 82 -6 c113 -8 273 -17
393 -22 94 -5 243 -19 310 -30 17 -2 71 -7 120 -10 50 -4 94 -10 99 -15 6 -5
24 -9 41 -9 16 0 46 -5 65 -10 19 -6 76 -11 125 -12 56 0 97 -5 109 -14 10 -7
24 -10 31 -8 6 3 18 -2 25 -11 17 -21 42 -19 62 4 9 11 25 18 35 17 10 -2 21
4 26 13 5 11 6 9 3 -6 -2 -13 0 -25 4 -28 5 -3 14 -30 20 -60 12 -60 72 -159
126 -210 50 -47 178 -111 252 -125 90 -18 191 -8 302 30 138 47 169 63 228
118 l52 50 0 67 c0 87 17 154 47 186 14 16 20 29 15 33 -6 3 -13 -2 -15 -11
-4 -14 -5 -13 -6 5 0 12 -7 22 -13 22 -7 0 -25 26 -40 58 l-27 57 21 22 c12
12 31 25 42 29 65 18 84 36 95 93 6 31 8 71 5 90 -9 52 2 78 33 84 28 5 57 -5
81 -30 19 -19 26 -17 39 14 17 39 159 173 182 173 4 0 13 17 20 38 17 46 39
72 61 72 19 0 30 19 30 52 0 27 -38 88 -54 88 -8 0 -25 9 -39 20 -21 17 -30
18 -58 8 -19 -6 -38 -15 -44 -19 -13 -13 -49 -11 -64 4 -11 10 -14 10 -18 0
-11 -30 -37 -9 -182 144 -22 23 -16 75 11 96 96 73 206 212 257 322 18 39 39
82 47 96 12 24 12 28 -2 33 -11 4 -22 -1 -30 -12 -7 -11 -49 -64 -94 -118 -44
-55 -90 -118 -101 -141 -11 -24 -24 -45 -29 -48 -5 -3 -16 -27 -26 -53 -30
-81 -103 -162 -147 -162 -15 0 -20 159 -7 210 8 33 14 224 11 393 l-1 78 -75
-42 c-71 -38 -80 -41 -138 -37 -157 11 -219 106 -127 198 20 20 56 48 80 61
78 43 112 123 74 177 -27 39 -36 83 -40 206 -4 119 -4 120 23 148 33 34 89 64
137 73 20 4 36 11 36 16 0 5 6 9 13 9 8 0 27 16 43 35 22 27 34 34 51 30 12
-3 24 -1 27 4 3 5 -5 9 -19 9 -13 0 -31 7 -40 16 -9 9 -31 24 -48 33 -18 8
-36 22 -40 29 -4 8 -15 14 -23 14 -8 0 -22 15 -30 33 -8 17 -22 43 -29 57 -18
31 -19 60 -2 60 7 0 31 -9 52 -20 109 -55 205 -61 252 -14 13 13 28 24 33 24
5 0 29 10 54 22 34 16 50 33 70 72 26 51 34 106 16 106 -15 0 -50 42 -50 61 0
9 -7 22 -15 29 -8 7 -12 16 -9 21 3 5 -8 9 -24 9 -16 0 -49 13 -73 30 -50 34
-77 38 -86 13 -8 -21 -20 -37 -50 -68 -13 -12 -23 -31 -23 -41 0 -22 41 -64
63 -64 8 0 31 -19 51 -41 30 -34 36 -49 36 -85 0 -50 3 -50 -111 -14 -50 16
-62 16 -108 4 l-53 -13 -36 33 c-20 19 -48 43 -62 54 l-25 20 22 30 c24 33 30
58 20 89 -10 29 -31 35 -64 18 -15 -8 -35 -15 -43 -15 -8 0 -26 -9 -40 -20
-14 -11 -31 -20 -37 -20 -7 0 -15 -10 -18 -22 -3 -13 -9 -45 -15 -71 -6 -27
-19 -65 -29 -85 -22 -45 -33 -109 -20 -117 9 -6 2 -52 -11 -70 -19 -24 -50
-87 -50 -99 0 -8 -16 -21 -35 -30 -30 -14 -35 -22 -35 -50 0 -36 42 -146 71
-188 10 -14 19 -31 19 -38 0 -6 9 -30 20 -52 40 -83 18 -128 -45 -94 -18 10
-56 20 -84 22 -57 4 -125 35 -141 63 -5 11 -10 81 -10 158 0 124 3 144 25 198
14 33 25 75 25 92 0 27 -5 34 -27 39 -65 15 -146 113 -125 150 15 27 138 64
209 64 61 0 64 1 83 33 39 64 15 147 -47 160 -57 11 -205 80 -233 108 -23 24
-30 42 -36 90 -6 52 -10 62 -31 70 -57 22 -60 18 -55 -88z m754 -2454 c29 -19
68 -41 86 -48 37 -15 38 -18 16 -49 -31 -44 -181 -104 -265 -105 -112 -2 -190
128 -113 189 79 64 190 69 276 13z m-398 -702 c86 -49 132 -151 88 -195 -11
-11 -46 -25 -79 -32 -32 -6 -71 -16 -87 -23 -23 -8 -31 -8 -34 1 -2 7 -11 12
-19 12 -23 0 -93 32 -93 43 0 4 4 6 9 2 5 -3 12 -1 16 4 3 6 -2 9 -12 7 -10
-2 -27 0 -38 5 -17 7 -16 8 8 8 16 1 26 5 22 11 -3 6 1 7 9 4 11 -4 16 0 16
10 0 9 7 19 15 23 9 3 23 19 31 35 20 38 83 108 98 108 6 0 29 -10 50 -23z"/>
<path d="M4470 4800 c-23 -23 -45 -38 -50 -35 -6 4 -10 1 -10 -6 0 -6 -12 -26
-27 -44 -16 -17 -36 -45 -45 -61 -10 -16 -26 -40 -38 -54 -17 -22 -29 -64 -56
-208 -4 -21 -9 -23 -37 -17 -18 4 -47 15 -65 26 -32 19 -33 19 -67 -4 -21 -13
-33 -28 -30 -37 3 -10 -3 -15 -21 -16 -14 -1 -28 -5 -31 -8 -10 -9 34 -53 112
-111 95 -71 130 -109 120 -132 -12 -30 -22 -156 -14 -183 3 -12 -5 -15 -40
-13 -32 2 -68 16 -135 55 -84 48 -108 68 -179 153 -54 64 -43 -17 18 -132 18
-35 30 -63 26 -63 -4 0 -31 20 -60 45 -54 46 -97 63 -70 28 55 -71 145 -175
183 -211 47 -44 56 -62 34 -62 -9 0 -8 -4 2 -10 8 -5 22 -7 31 -5 9 3 49 -11
88 -31 56 -29 71 -40 65 -53 -23 -55 -34 -294 -13 -307 8 -4 7 -9 -2 -15 -8
-4 -14 -17 -15 -27 -1 -14 4 -18 23 -14 19 4 22 9 17 26 -6 18 -5 19 10 7 14
-12 19 -11 37 5 23 20 79 26 91 9 5 -5 5 4 2 22 -5 26 -2 33 17 43 38 19 138
132 150 168 17 50 4 93 -51 165 -27 35 -46 67 -43 71 4 3 0 6 -8 6 -15 0 -44
38 -36 47 7 7 -62 73 -87 83 -20 8 -20 9 -1 9 11 1 28 10 38 21 13 15 24 19
45 14 37 -9 94 -42 110 -65 7 -11 37 -44 65 -75 58 -63 105 -93 117 -74 5 8 9
7 13 -4 9 -23 76 -21 164 6 50 15 73 27 73 37 0 13 2 13 9 3 12 -20 81 15 81
41 0 16 3 17 15 7 12 -10 21 -8 50 10 20 12 32 26 28 33 -4 6 0 8 9 5 9 -4 30
8 53 28 21 18 53 38 72 44 18 7 33 16 33 21 0 4 14 6 30 3 29 -6 30 -5 24 24
-5 25 -1 36 21 58 26 26 26 27 4 21 -13 -3 -28 -2 -34 3 -35 29 -235 54 -249
31 -3 -5 -25 -7 -48 -5 -24 2 -48 1 -54 -3 -13 -10 -82 -101 -87 -116 -2 -8
-20 -3 -54 15 -44 25 -52 26 -63 13 -21 -25 -30 -17 -30 25 0 61 -20 141 -48
190 -25 44 -111 170 -122 180 -22 19 -130 174 -125 179 4 3 13 -3 21 -13 21
-29 29 -12 44 84 7 47 14 95 17 108 2 16 -2 22 -14 22 -13 0 -9 8 17 30 19 16
32 30 28 30 -5 0 -26 -18 -48 -40z m14 -413 c63 -82 143 -327 107 -327 -9 0
-89 83 -145 153 -30 36 -36 51 -28 59 7 7 12 40 12 73 0 86 13 96 54 42z"/>
<path d="M8508 4703 c-10 -2 -18 -11 -18 -19 0 -8 -4 -13 -8 -10 -9 5 -48 -29
-72 -63 -8 -11 -19 -21 -26 -21 -6 0 -16 -11 -24 -24 -7 -13 -21 -27 -31 -29
-21 -6 -26 -27 -7 -27 6 0 3 -9 -7 -20 -10 -11 -13 -20 -7 -20 6 0 20 12 31
26 20 25 83 50 101 39 5 -3 14 4 20 15 6 11 16 17 22 14 7 -5 9 -2 5 9 -4 11
-2 14 9 10 9 -3 14 2 14 17 0 11 5 18 10 15 8 -5 15 31 11 58 0 4 20 7 47 8
l47 0 -45 15 c-25 7 -47 13 -50 13 -3 -1 -13 -3 -22 -6z"/>
<path d="M3856 4623 c-9 -10 -7 -41 3 -47 15 -10 43 6 37 20 -4 11 1 10 19 -2
14 -9 25 -22 25 -30 0 -21 46 -47 70 -39 11 4 38 4 60 0 35 -6 39 -10 42 -41
2 -27 6 -32 18 -24 13 8 13 11 1 19 -7 5 -10 14 -7 20 10 15 36 14 36 -1 0 -7
10 -3 21 9 22 21 20 61 -1 48 -6 -4 -26 -8 -45 -10 -39 -3 -54 19 -35 55 6 11
7 20 2 20 -5 0 -15 -14 -22 -30 -9 -23 -16 -28 -25 -20 -7 6 -17 10 -21 9 -5
-1 -11 0 -14 1 -3 1 -18 4 -35 6 -16 3 -43 11 -60 19 -46 20 -62 24 -69 18z"/>
<path d="M2968 4159 c-10 -5 -18 -15 -18 -20 0 -17 -29 -41 -43 -36 -7 3 -21
-1 -31 -8 -16 -13 -16 -14 3 -20 17 -5 19 -10 9 -30 -12 -27 -35 -39 -52 -27
-6 5 -22 6 -36 2 l-25 -6 23 -8 c25 -8 30 -41 7 -50 -8 -3 -15 -2 -15 2 0 9
-67 8 -76 -1 -4 -4 10 -14 30 -22 31 -13 36 -18 26 -30 -7 -8 -9 -15 -6 -15 4
0 1 -6 -6 -14 -7 -8 -16 -12 -20 -9 -4 2 -5 -3 -2 -11 4 -10 1 -16 -7 -16 -11
0 -11 -3 1 -10 8 -5 18 -10 21 -10 7 0 33 52 31 63 -1 4 5 7 14 7 8 0 13 4 10
8 -3 5 16 32 43 61 27 29 54 64 62 79 8 15 26 41 41 57 16 17 28 36 28 43 0 6
5 12 10 12 6 0 10 5 10 10 0 13 -10 12 -32 -1z"/>
<path d="M6043 4002 c-12 -12 -18 -13 -39 -2 -13 7 -27 10 -31 7 -3 -4 1 -7 9
-7 11 0 14 -6 11 -20 -3 -11 0 -20 6 -20 6 0 11 -4 11 -9 0 -5 -9 -7 -20 -4
-11 3 -20 11 -20 17 0 19 -66 16 -88 -4 -10 -10 -28 -20 -38 -23 -15 -4 -14
-5 6 -6 l25 -1 -25 -20 c-14 -11 -20 -20 -15 -20 6 0 -1 -7 -15 -15 -24 -14
-24 -14 -3 -15 13 0 24 8 28 20 3 11 11 20 17 20 5 0 8 -7 4 -15 -3 -9 0 -15
9 -15 8 0 15 -5 15 -11 0 -6 -8 -8 -18 -5 -10 4 -45 -3 -78 -15 -32 -11 -75
-25 -95 -30 l-36 -11 21 -38 c11 -21 30 -41 41 -43 11 -3 60 -20 108 -37 208
-74 405 -42 635 103 l54 34 -59 18 c-32 10 -64 24 -71 32 -16 15 -9 17 16 4 9
-5 44 -17 77 -26 33 -10 70 -22 83 -26 31 -12 62 -11 62 2 0 6 -8 8 -18 5 -12
-4 -26 2 -38 15 -19 22 -19 22 3 10 28 -14 30 -14 36 3 4 10 1 13 -7 10 -7 -3
-25 0 -39 5 -24 9 -27 8 -28 -12 -1 -17 -2 -18 -6 -4 -2 9 -9 17 -14 17 -6 0
-7 5 -4 10 8 13 3 13 -30 0 -20 -8 -30 -7 -41 5 -9 8 -12 15 -8 15 3 0 1 7 -6
15 -8 10 -17 12 -24 6 -6 -4 -21 -7 -34 -5 -18 3 -22 0 -18 -13 8 -25 -7 -45
-27 -37 -21 8 -22 24 -2 24 19 0 19 7 1 26 -22 22 -37 17 -32 -11 5 -26 -8
-35 -17 -12 -4 10 -6 10 -6 0 -1 -14 -37 -18 -45 -5 -3 5 -29 5 -58 1 -75 -11
-108 -10 -108 1 0 5 7 7 15 4 23 -9 18 18 -9 44 -24 22 -50 32 -28 10 17 -17
15 -33 -3 -18 -8 7 -15 18 -15 25 0 8 -6 16 -12 19 -7 3 2 3 19 0 27 -5 32 -3
27 10 -3 9 -1 16 5 16 6 0 11 -8 11 -17 0 -27 16 -47 30 -38 9 6 9 9 -1 16
-10 6 -6 11 14 18 26 10 38 31 17 31 -5 0 -10 -4 -10 -9 0 -5 -9 -11 -20 -14
-16 -4 -20 -2 -15 12 7 22 -21 24 -42 3z"/>
<path d="M1231 3951 c-9 -6 -10 -14 -3 -27 5 -11 12 -50 14 -89 3 -39 14 -88
24 -110 l20 -40 63 2 c35 1 69 7 75 13 15 15 18 80 3 77 -6 -1 -11 4 -12 11 0
7 -13 21 -28 31 -38 24 -104 97 -112 121 -7 21 -22 25 -44 11z"/>
<path d="M5490 3945 c0 -2 14 -26 30 -52 17 -26 29 -56 27 -65 -3 -11 3 -18
18 -22 29 -7 39 -31 14 -33 -10 -1 -19 2 -19 8 0 5 -5 9 -11 9 -5 0 -7 -5 -4
-10 3 -6 -5 -14 -18 -19 -14 -6 -28 -14 -31 -20 -8 -12 14 -61 26 -61 5 0 15
-6 22 -12 8 -7 23 -20 35 -28 11 -8 21 -20 21 -28 0 -7 6 -15 14 -18 8 -3 26
-31 41 -62 15 -31 36 -65 46 -75 15 -14 17 -22 9 -37 -12 -23 2 -27 19 -6 8
10 9 16 1 21 -6 3 -8 11 -4 16 3 6 -3 13 -15 16 -17 4 -20 10 -15 32 9 35 14
42 25 36 14 -9 11 5 -6 21 -17 18 -20 34 -5 34 6 0 10 5 10 11 0 5 -5 7 -11 3
-8 -5 -10 1 -7 19 3 16 1 24 -5 20 -5 -3 -6 3 -2 16 5 15 2 21 -9 21 -15 0
-18 4 -20 33 -1 6 -3 14 -7 17 -3 3 -20 32 -38 64 -18 33 -42 67 -53 75 -10 9
-20 24 -22 34 -3 22 -56 63 -56 42z"/>
<path d="M7996 3906 c-26 -14 -63 -38 -80 -55 -37 -36 -42 -37 -83 -16 -31 16
-90 17 -99 3 -8 -13 -24 -9 -24 6 0 8 -6 16 -12 19 -10 3 -12 -9 -9 -47 3 -28
6 -42 9 -31 6 31 19 39 26 17 4 -11 14 -23 22 -26 8 -3 12 -1 9 4 -3 6 1 7 9
4 9 -3 16 -17 16 -31 0 -18 4 -24 15 -20 23 10 30 -15 8 -32 -22 -19 -34 -53
-23 -70 9 -16 60 6 60 26 0 17 19 17 26 0 8 -22 51 -18 71 6 23 29 73 44 84
25 5 -7 6 -31 2 -53 -6 -37 -5 -39 11 -26 15 12 16 12 10 -5 -5 -18 -5 -18 6
-1 6 9 18 17 26 17 20 0 29 -27 14 -45 -7 -9 -16 -33 -20 -56 -6 -33 -4 -41
11 -50 25 -13 39 -4 39 25 0 15 7 26 20 29 11 3 20 0 20 -6 0 -6 6 -4 13 5 6
8 19 18 28 21 15 5 15 1 6 -31 -6 -20 -17 -43 -24 -50 -21 -21 -15 -42 10 -42
16 0 27 9 34 28 10 25 11 25 12 5 1 -21 21 -34 21 -14 0 10 61 -17 70 -30 3
-4 30 14 60 42 30 27 61 54 68 60 7 6 11 18 8 25 -3 8 1 17 9 20 8 4 15 15 15
25 0 10 4 19 10 19 9 0 37 78 29 83 -2 1 -20 10 -39 20 l-35 18 43 -5 c45 -4
54 6 22 26 -23 15 -27 30 -5 22 21 -9 19 10 -5 31 -20 18 -27 45 -11 45 4 0 7
10 7 23 -1 12 2 28 7 35 6 7 7 15 3 19 -12 12 -55 -16 -78 -52 -13 -19 -29
-35 -35 -35 -7 0 -13 -4 -13 -10 0 -15 -51 -12 -84 5 -18 9 -41 13 -60 10 -25
-5 -42 1 -86 32 -45 31 -104 64 -113 63 -1 0 -24 -11 -51 -24z"/>
<path d="M7503 3856 c1 -24 6 -35 15 -31 15 6 15 3 -2 -30 -8 -15 -12 -35 -8
-44 5 -12 8 -8 13 14 l6 30 8 -28 8 -29 19 29 19 28 -6 -33 c-7 -33 -6 -33 16
-21 23 12 23 12 6 -14 -20 -30 -11 -39 32 -31 26 6 31 11 36 48 4 22 5 59 3
81 -3 39 -4 40 -36 37 -18 -1 -31 1 -28 6 2 4 -3 8 -12 8 -9 1 -34 4 -54 8
l-37 8 2 -36z"/>
<path d="M6550 3769 c0 -15 5 -31 10 -34 6 -3 10 -1 10 4 0 6 4 11 10 11 6 0
7 -18 3 -45 -4 -33 -2 -45 7 -45 9 0 10 -12 5 -47 -4 -27 -10 -52 -15 -58 -13
-16 -39 -154 -44 -235 -3 -41 -8 -89 -12 -106 -4 -22 -1 -40 10 -56 11 -17 18
-54 20 -109 2 -46 11 -110 21 -141 9 -32 15 -68 13 -80 -2 -16 3 -24 17 -26
58 -12 72 -44 36 -85 -14 -17 -160 -92 -166 -85 -1 2 -12 45 -25 97 -12 52
-26 102 -30 110 -5 9 -11 24 -14 34 -3 10 -10 16 -15 13 -5 -3 -8 5 -8 18 0
27 -42 88 -55 80 -4 -3 -8 2 -8 12 0 15 -2 15 -22 1 -13 -8 -22 -23 -20 -32 2
-12 -2 -16 -15 -13 -10 2 -18 10 -18 18 0 8 -10 16 -21 18 -12 2 -30 12 -40
23 -9 10 -23 19 -30 19 -7 0 -21 14 -31 30 -10 18 -37 39 -65 52 -27 12 -48
28 -48 35 0 7 -4 13 -10 13 -5 0 -9 -4 -7 -9 1 -5 -2 -9 -8 -10 -5 -1 -10 5
-10 12 -1 6 -6 11 -13 10 -16 -4 -4 24 15 31 8 3 18 4 23 1 4 -2 7 5 6 17 -1
28 -46 46 -46 19 0 -11 6 -22 13 -24 6 -3 -1 -6 -17 -6 -16 -1 -26 -4 -23 -8
8 -7 -11 -33 -25 -33 -5 0 -4 9 2 20 13 25 5 40 -21 40 -11 0 -17 5 -14 10 3
6 1 10 -5 10 -13 0 -3 41 12 51 11 7 -67 19 -123 19 -30 0 -37 -3 -33 -15 4
-8 -1 -17 -10 -21 -9 -3 -14 -9 -12 -13 6 -10 -5 -24 -30 -38 -21 -11 -21 -10
-14 23 5 20 4 34 -1 34 -6 0 -9 8 -7 17 2 11 -6 22 -19 28 -13 5 -23 14 -23
20 0 5 -9 -1 -19 -14 l-19 -25 -21 42 c-11 23 -21 50 -21 61 0 11 -9 25 -20
31 -11 6 -23 22 -26 35 -9 36 -51 35 -51 0 0 -25 11 -33 22 -15 3 6 10 10 16
10 5 0 9 -4 9 -10 0 -5 -7 -10 -16 -10 -9 0 -12 -5 -8 -12 5 -7 2 -9 -9 -5
-32 12 -30 -31 6 -98 34 -64 35 -93 0 -35 -19 33 -28 37 -37 18 -3 -7 -2 0 1
16 4 20 2 27 -5 22 -8 -5 -10 -2 -6 8 4 9 -1 18 -10 22 -9 3 -16 14 -16 23 0
14 2 14 10 1 5 -8 10 -10 10 -5 0 6 -8 22 -17 35 -12 18 -13 22 -2 13 9 -8 20
-9 29 -3 10 7 11 10 3 10 -7 0 -13 6 -13 13 0 17 -70 13 -81 -5 -4 -7 -20 -13
-36 -14 -43 -2 -43 -2 -52 -26 -12 -33 8 -60 37 -53 15 4 21 2 17 -5 -3 -5 -2
-10 4 -10 5 0 13 5 16 10 3 6 16 10 28 10 l22 -1 -22 -18 c-23 -19 -32 -38
-13 -26 6 4 10 -5 9 -22 -3 -58 -1 -64 26 -57 16 4 30 0 41 -10 15 -16 14 -17
-12 -11 -24 4 -23 2 11 -15 48 -24 59 -24 75 -5 14 17 50 20 50 4 0 -5 -4 -8
-9 -5 -5 3 -11 -11 -15 -32 -8 -46 -52 -84 -70 -60 -6 8 -16 13 -23 11 -6 -2
-14 1 -18 6 -4 8 -12 8 -26 1 -18 -10 -21 -8 -18 18 0 4 8 6 17 4 15 -2 15 -1
2 7 -24 17 -40 13 -40 -10 0 -17 -4 -20 -24 -15 -15 4 -26 1 -28 -6 -3 -7 -7
-6 -11 5 -4 12 -1 17 10 17 13 0 13 3 3 15 -7 9 -19 14 -27 11 -7 -3 -13 -1
-13 5 0 6 -5 7 -11 4 -10 -7 -49 21 -49 36 0 15 -47 59 -63 59 -9 0 -17 13
-21 33 -4 17 -18 52 -31 77 -14 25 -27 53 -31 63 -3 9 -16 17 -27 17 -20 0
-20 0 -1 14 18 14 18 15 2 21 -10 4 -16 10 -14 14 2 3 -2 12 -10 19 -17 15
-19 0 -4 -29 6 -11 7 -19 2 -19 -6 0 -12 9 -15 20 -4 14 -11 18 -24 14 -15 -4
-15 -4 -3 4 14 10 18 49 12 141 -2 22 -3 23 -27 7 -13 -9 -31 -16 -39 -16 -8
0 -19 -6 -23 -12 -4 -7 -14 -13 -22 -13 -8 0 -16 -6 -19 -14 -3 -9 2 -11 19
-7 13 3 18 3 11 0 -6 -3 -10 -9 -8 -12 2 -4 -14 -8 -37 -9 -27 -1 -36 2 -26 8
11 7 11 9 -4 9 -9 0 -26 15 -37 33 -22 36 -25 30 -9 -25 5 -21 15 -38 22 -38
8 0 7 -3 -2 -9 -8 -5 -10 -14 -6 -22 6 -9 3 -11 -8 -6 -10 4 -17 1 -17 -5 0
-6 -3 -9 -6 -5 -3 3 -20 -2 -38 -12 -32 -18 -32 -18 -34 5 -1 13 3 24 10 24 6
0 8 3 5 6 -10 10 -38 -17 -31 -28 4 -6 -1 -8 -12 -4 -14 4 -22 -1 -31 -19 -6
-15 -7 -27 -2 -31 5 -3 -5 -17 -21 -31 -35 -29 -57 -63 -40 -63 6 0 15 11 22
25 6 13 15 22 19 19 11 -6 12 -34 2 -33 -24 4 -25 -4 -3 -21 21 -16 22 -20 7
-20 -10 0 -27 5 -38 10 -13 8 -19 7 -19 0 0 -6 -4 -8 -10 -5 -5 3 -10 -1 -10
-9 0 -9 -4 -16 -10 -16 -5 0 -10 -7 -10 -15 0 -8 7 -15 15 -15 8 0 15 6 15 14
0 23 29 41 43 27 9 -9 8 -19 -6 -42 -9 -17 -14 -36 -10 -41 3 -7 1 -8 -5 -4
-7 4 -12 2 -12 -3 0 -6 7 -11 16 -11 8 0 12 -5 9 -10 -4 -6 -11 -7 -17 -4 -7
4 -8 2 -4 -4 7 -12 -53 -79 -67 -74 -5 1 -6 -2 -3 -7 10 -15 -14 -24 -29 -11
-21 18 -19 41 3 34 13 -5 14 -4 3 4 -8 6 -11 17 -8 27 4 9 3 14 -3 10 -6 -3
-10 -12 -10 -20 0 -8 -9 -21 -21 -29 -12 -8 -19 -18 -16 -23 2 -4 -5 -17 -16
-28 l-20 -20 6 23 c4 15 1 22 -6 19 -7 -2 -11 -14 -10 -26 2 -13 -3 -21 -12
-21 -8 0 -12 -6 -9 -14 3 -7 -2 -16 -10 -19 -17 -7 -30 8 -21 23 4 6 2 9 -3 8
-6 -2 -21 12 -34 31 -12 19 -30 36 -38 38 -10 3 -8 -2 5 -12 20 -17 20 -17 -1
-11 l-21 6 18 -92 c23 -122 46 -193 67 -214 16 -16 17 -16 23 7 7 23 7 23 8
-4 1 -16 5 -26 11 -22 6 3 10 0 10 -8 0 -14 83 -97 97 -97 5 0 17 -15 27 -34
14 -27 21 -32 31 -23 7 7 11 17 8 22 -2 6 3 1 11 -9 9 -11 16 -27 16 -35 0
-14 -2 -14 -10 -1 -5 8 -11 12 -14 9 -3 -2 6 -22 19 -44 13 -22 36 -66 51 -98
22 -47 29 -55 41 -45 24 20 41 -7 19 -31 -10 -11 -15 -24 -12 -29 3 -5 -1 -16
-10 -23 -8 -7 -14 -8 -13 -3 4 18 -14 64 -25 63 -30 -4 -37 1 -24 15 7 8 18
11 23 8 6 -3 1 4 -10 15 -20 20 -20 20 -27 1 -7 -18 -9 -18 -24 -4 -8 9 -20
16 -26 16 -6 0 -8 11 -6 25 4 20 2 23 -7 15 -9 -7 -15 -8 -19 -1 -4 6 -14 8
-24 5 -15 -5 -15 -4 1 6 14 9 15 14 5 24 -19 18 -56 26 -62 12 -3 -6 -3 -1 0
12 3 12 1 22 -5 22 -6 0 -8 7 -5 15 4 9 0 16 -10 17 -9 0 -22 1 -28 2 -7 1
-26 26 -41 56 -15 30 -35 62 -44 70 -13 13 -13 11 1 -17 9 -18 16 -37 16 -44
0 -6 23 -56 50 -110 28 -55 47 -99 44 -99 -3 0 1 -11 10 -25 18 -27 20 -35 8
-35 -5 0 -15 11 -22 25 -7 14 -18 25 -24 25 -6 0 -5 -5 2 -12 7 -7 12 -19 12
-28 -1 -12 -3 -12 -11 3 -6 9 -15 15 -21 11 -7 -4 -8 1 -3 16 6 19 4 22 -9 17
-12 -5 -15 -3 -10 5 5 7 2 9 -9 5 -9 -3 -21 1 -29 11 -12 16 -11 16 6 2 18
-14 19 -13 14 1 -4 9 -1 22 5 28 6 6 8 13 5 16 -3 3 -13 -1 -21 -10 -10 -9
-18 -11 -22 -5 -3 5 -13 10 -21 10 -8 0 -13 -4 -10 -9 4 -5 -4 -7 -16 -3 -16
4 -19 2 -12 -9 4 -8 9 -20 11 -28 1 -7 7 -19 14 -25 9 -8 10 -8 4 3 -5 9 6 5
23 -8 18 -12 30 -27 27 -32 -4 -5 -2 -9 4 -9 6 0 13 -11 17 -25 3 -14 10 -23
14 -20 4 2 5 -6 3 -18 -3 -14 2 -29 11 -36 9 -8 16 -19 16 -27 0 -7 9 -18 19
-23 15 -8 20 -7 25 5 3 9 4 20 0 25 -3 5 -1 9 5 9 5 0 11 8 14 18 2 9 3 -4 3
-29 -1 -26 -4 -45 -8 -43 -4 2 -10 -1 -13 -6 -5 -8 -13 -6 -25 5 -12 11 -20
13 -25 6 -3 -6 1 -11 10 -11 9 0 15 -6 12 -12 -2 -8 -15 -12 -31 -10 -15 2
-34 -2 -42 -8 -11 -10 -14 -9 -14 4 0 14 -25 22 -54 17 -5 -1 -6 5 -2 14 3 9
2 13 -4 10 -19 -11 -90 40 -90 65 0 5 -6 9 -12 8 -8 -2 -12 5 -10 15 2 9 -4
20 -12 23 -9 3 -13 10 -10 15 3 5 1 9 -3 9 -5 0 -18 7 -29 16 -10 8 -12 12 -4
8 8 -4 5 4 -7 18 -13 13 -23 30 -23 37 0 7 -3 10 -7 8 -5 -3 -9 5 -9 17 -1 13
-14 43 -30 67 -15 24 -27 48 -26 54 0 5 2 31 5 58 2 26 0 50 -4 53 -5 3 -7 10
-4 15 4 5 1 9 -4 9 -6 0 -11 -5 -11 -12 0 -6 -2 -9 -4 -7 -2 2 0 26 5 52 6 37
5 57 -7 87 -9 22 -21 40 -26 40 -6 0 -8 -7 -5 -14 4 -10 1 -13 -9 -9 -18 7
-18 -8 2 -118 10 -56 20 -86 27 -82 6 4 8 0 4 -11 -4 -10 -7 -19 -7 -22 0 -2
-7 -1 -15 2 -8 4 -22 1 -30 -6 -13 -11 -25 -8 -68 15 -130 71 -204 131 -279
223 -42 52 -59 3 -25 -71 33 -71 135 -197 199 -245 73 -55 175 -105 200 -99
14 4 22 0 25 -13 3 -12 10 -17 21 -12 15 5 15 4 3 -12 -12 -14 -12 -19 -2 -26
8 -4 11 -12 8 -17 -10 -15 37 -105 76 -146 20 -21 42 -46 49 -55 18 -24 -40
26 -83 71 l-36 37 -11 -25 c-7 -14 -12 -32 -12 -39 0 -8 -7 -19 -15 -26 -11
-9 -12 -16 -2 -31 9 -15 8 -22 -11 -39 -12 -11 -25 -33 -28 -48 -4 -15 -15
-41 -25 -58 -11 -17 -22 -53 -25 -80 -3 -27 -12 -54 -21 -61 -8 -7 -13 -19
-10 -27 4 -9 3 -15 -1 -15 -19 3 -22 -2 -8 -17 9 -8 20 -13 25 -9 5 3 12 1 16
-5 6 -10 -7 -14 -32 -11 -18 3 -16 -26 2 -32 8 -4 17 -2 20 3 4 6 11 10 17 10
7 0 6 -6 -2 -15 -10 -12 -9 -15 6 -15 17 0 17 0 0 -13 -16 -11 -17 -17 -6 -36
14 -27 7 -38 -11 -18 -10 10 -22 12 -41 6 -42 -12 -52 -20 -37 -30 10 -6 8 -9
-8 -9 -27 0 -36 -27 -29 -85 2 -22 5 -41 5 -43 1 -1 10 2 22 8 11 7 23 9 26 6
3 -3 -6 -10 -21 -15 -14 -6 -26 -16 -26 -22 0 -8 4 -8 15 1 8 7 15 8 15 2 0
-12 -29 -37 -35 -30 -4 4 -22 117 -29 186 -2 12 -6 25 -11 30 -4 4 -5 -5 -3
-20 3 -16 1 -28 -4 -28 -6 0 -8 -7 -4 -15 3 -8 0 -15 -6 -15 -7 0 -3 -7 8 -15
10 -8 14 -15 7 -15 -7 0 -17 -18 -23 -40 -10 -36 -30 -56 -30 -30 0 6 5 10 10
10 6 0 10 7 10 15 0 8 -4 15 -10 15 -5 0 -7 7 -3 16 4 12 2 15 -8 12 -8 -3
-14 -10 -14 -16 0 -5 -4 -14 -9 -19 -5 -5 -6 -3 -2 5 4 6 2 12 -3 12 -6 0 -11
8 -11 18 0 14 -2 14 -9 3 -7 -11 -10 -10 -14 5 -4 13 -5 12 -4 -6 1 -14 -2
-31 -6 -37 -6 -9 -1 -13 14 -13 17 0 20 -3 12 -11 -8 -8 -19 -6 -42 7 -17 10
-31 22 -31 26 0 4 -16 28 -35 54 -19 25 -35 56 -35 69 0 13 -4 26 -8 29 -17
10 -34 119 -27 172 4 36 3 54 -4 54 -6 0 -11 -4 -11 -10 0 -5 -6 -10 -13 -10
-9 0 -12 -23 -11 -89 0 -48 4 -93 8 -99 3 -6 1 -14 -5 -18 -7 -4 -9 -25 -4
-61 6 -51 21 -90 66 -173 21 -39 91 -106 120 -115 11 -4 19 -11 19 -16 0 -5 8
-9 19 -9 29 0 47 -28 34 -50 -7 -9 -15 -34 -18 -54 -6 -29 -4 -36 9 -36 9 0
16 4 16 9 0 5 7 17 16 26 14 13 19 14 25 3 5 -7 9 -21 9 -32 0 -10 10 -27 22
-38 21 -18 33 -58 16 -58 -4 0 -8 -7 -8 -16 0 -13 3 -14 13 -5 10 8 17 7 25
-1 9 -9 12 -8 12 4 0 12 7 14 38 9 41 -8 72 -4 72 8 0 5 11 6 25 3 19 -3 23
-8 15 -17 -8 -9 -5 -14 12 -19 16 -4 28 0 41 15 14 18 17 19 17 4 0 -9 6 -15
13 -12 6 2 11 12 11 21 -1 9 2 16 7 16 5 0 9 -4 9 -10 0 -5 7 -10 16 -10 9 0
12 5 8 13 -4 6 -3 9 1 5 13 -12 16 -60 3 -52 -7 4 -8 2 -4 -4 11 -17 36 -15
36 4 0 8 5 12 10 9 6 -3 10 -19 10 -35 0 -35 83 -125 106 -116 8 3 22 1 32 -4
21 -12 103 -41 120 -42 6 -1 13 -7 13 -15 5 -52 3 -73 -8 -73 -7 0 -12 -5 -10
-12 1 -6 -7 -14 -18 -16 -11 -2 -24 -11 -28 -18 -6 -11 -13 -12 -30 -2 -12 6
-27 17 -34 23 -15 16 -63 7 -63 -11 0 -8 -5 -14 -11 -14 -6 0 -8 -9 -3 -22 7
-23 6 -23 -15 -4 -11 11 -21 16 -21 11 0 -4 -7 -2 -15 5 -13 11 -15 9 -13 -11
3 -20 -2 -23 -42 -26 -33 -3 -41 -1 -30 6 12 9 11 11 -9 11 -16 0 -21 4 -18
14 4 10 1 13 -7 10 -18 -7 -27 31 -16 61 6 16 5 25 -3 29 -9 3 -8 7 2 14 7 5
11 14 7 20 -3 6 -2 13 4 17 5 3 10 -3 10 -14 0 -12 4 -21 10 -21 5 0 6 9 1 22
-5 15 -18 23 -34 25 -20 1 -24 -2 -20 -14 7 -19 -23 -44 -43 -36 -8 3 -18 -4
-23 -18 -5 -13 -10 -19 -10 -14 -1 6 -14 10 -30 11 -22 1 -28 -3 -24 -13 5
-13 2 -13 -18 -2 -55 28 -58 29 -53 14 4 -8 1 -15 -5 -15 -6 0 -11 4 -11 8 0
5 -14 9 -31 10 -37 1 -49 10 -30 21 10 6 5 11 -18 16 -17 3 -31 12 -31 19 0
13 -27 38 -59 56 -12 6 -19 16 -15 22 4 5 0 14 -7 19 -12 8 -11 12 4 23 21 16
23 30 2 22 -8 -3 -21 2 -30 10 -8 8 -20 12 -26 8 -7 -4 -9 -3 -5 4 3 6 2 13
-4 17 -9 6 -14 -14 -11 -43 1 -6 -3 -12 -10 -12 -7 0 -10 11 -7 30 3 16 3 28
0 26 -2 -3 -14 -1 -27 4 -17 6 -27 5 -35 -5 -9 -10 -7 -14 7 -18 14 -4 12 -5
-5 -6 -18 -1 -28 -11 -39 -41 -9 -22 -20 -40 -26 -40 -6 0 -6 4 0 12 17 21 42
108 37 122 -6 15 62 116 77 116 16 0 9 57 -10 81 -18 22 -19 22 -45 6 -14 -10
-26 -22 -26 -27 0 -6 -9 -10 -20 -10 -11 0 -20 5 -20 10 0 6 -10 15 -22 20
-22 8 -22 9 5 9 25 1 27 4 21 24 -7 24 -22 37 -42 37 -7 0 -10 4 -7 10 3 5 0
16 -7 23 -10 12 -15 11 -29 -7 -57 -75 -70 -292 -24 -426 14 -40 33 -82 42
-93 14 -14 17 -33 15 -80 -4 -69 24 -203 58 -282 50 -117 195 -279 295 -332
33 -17 104 -48 159 -68 96 -36 101 -37 194 -31 97 7 197 25 286 51 66 20 66
20 18 -16 -42 -31 -72 -74 -72 -104 0 -13 17 -15 110 -15 l110 0 0 68 c0 37 5
84 10 105 6 20 14 52 19 71 5 19 36 70 70 113 58 76 62 79 105 82 28 1 66 -7
103 -22 32 -12 87 -31 123 -42 36 -10 67 -22 70 -25 13 -14 105 -40 108 -30 2
5 25 10 50 10 31 0 42 -3 33 -9 -19 -12 12 -28 70 -37 49 -8 89 -25 114 -51
16 -15 15 -18 -16 -45 -18 -16 -63 -46 -99 -65 -36 -20 -87 -53 -115 -73 -27
-20 -57 -39 -65 -43 -8 -3 23 -6 69 -6 l84 -1 56 47 c31 26 63 54 71 63 18 19
116 83 145 94 26 10 41 12 154 26 51 6 101 15 110 19 32 18 200 24 453 18 38
-1 68 1 68 4 0 3 19 12 43 19 23 7 53 16 67 20 41 13 130 29 220 40 70 8 93 7
132 -6 43 -14 49 -14 80 3 25 13 57 17 138 18 125 0 179 -19 194 -70 5 -16 19
-56 32 -88 28 -67 30 -120 9 -161 -8 -15 -15 -32 -15 -37 0 -5 226 -9 524 -9
l525 1 3 37 c2 20 -1 64 -5 97 -15 106 -16 107 -38 100 -17 -6 -19 -3 -14 26
3 18 9 37 12 43 4 6 10 31 14 55 5 35 2 54 -13 83 -11 21 -24 40 -29 43 -4 3
-6 12 -3 19 10 26 -27 77 -81 111 -73 47 -99 73 -119 120 -10 22 -32 49 -50
60 -30 20 -31 22 -32 97 -1 77 -12 108 -40 108 -8 0 -14 5 -14 10 0 6 -10 10
-21 10 -18 0 -19 3 -9 15 10 12 8 23 -10 60 -22 46 -41 55 -78 36 -66 -33
-120 -38 -173 -15 -32 15 -37 22 -42 57 -5 39 -42 87 -68 87 -6 0 -30 -20 -53
-45 -54 -58 -74 -58 -67 1 1 6 -9 19 -21 30 -21 19 -21 19 -16 -3 4 -15 2 -23
-7 -23 -7 0 -20 -2 -27 -5 -22 -9 -69 37 -58 55 8 12 10 12 10 -4 0 -11 2 -17
5 -14 11 10 -7 59 -20 54 -6 -2 -25 6 -41 19 -23 19 -27 26 -16 36 6 7 12 22
12 32 0 13 5 17 15 13 10 -3 15 1 15 13 0 30 57 51 120 45 74 -8 83 -9 101
-18 26 -11 65 10 126 69 60 57 98 73 153 62 16 -4 52 1 80 9 29 8 58 13 66 10
9 -3 14 2 14 14 0 11 -6 20 -14 20 -7 0 -16 10 -20 23 -12 45 -7 56 29 63 32
6 85 52 85 74 0 5 11 21 25 36 14 15 25 33 25 40 0 19 25 18 45 -2 13 -14 18
-14 33 -3 47 37 76 68 99 104 15 22 41 53 60 69 18 16 33 35 33 42 0 8 9 14
21 14 11 0 18 4 14 9 -3 5 -1 12 5 16 17 11 11 32 -11 38 -12 3 -18 10 -14 16
3 6 0 11 -8 11 -8 0 -17 9 -20 21 -6 24 1 51 12 44 4 -2 15 19 24 48 22 70 36
86 75 89 17 1 32 6 32 11 0 5 15 6 34 3 23 -4 37 -2 45 8 16 18 5 56 -15 56
-10 0 -7 7 10 23 34 32 45 63 51 154 3 43 6 87 8 98 2 19 -3 20 -85 18 -77 -1
-88 1 -88 16 0 18 -48 51 -66 44 -7 -2 1 -17 18 -35 32 -35 32 -37 -5 -40 -14
-1 -24 -4 -22 -7 6 -6 -109 -56 -252 -110 -122 -46 -153 -45 -153 4 0 25 14
33 68 40 51 6 102 35 102 57 0 18 -4 19 -35 14 -19 -4 -35 -3 -35 2 0 5 -14
12 -32 16 -17 3 -28 9 -25 13 4 3 2 12 -3 18 -14 16 12 38 45 38 14 0 28 3 31
8 3 5 13 5 24 -1 21 -11 210 -11 210 0 0 3 -17 18 -38 31 -30 20 -49 25 -90
23 -29 -2 -50 1 -47 6 3 4 -3 14 -12 21 -12 10 -14 10 -9 2 5 -9 0 -13 -14
-13 -15 0 -20 5 -18 17 4 22 69 36 117 25 41 -10 196 -8 229 2 25 8 30 36 6
36 -11 0 -15 6 -11 20 5 21 -7 28 -18 10 -4 -6 -11 -8 -16 -4 -5 3 -7 9 -4 13
9 15 -70 34 -93 22 -19 -10 -20 -9 -15 30 l6 41 -54 -7 c-30 -4 -61 -11 -70
-16 -9 -5 -27 -6 -40 -2 -13 3 -37 5 -53 5 -37 -2 -71 17 -126 67 -25 23 -50
39 -56 37 -7 -3 -28 6 -47 20 -31 20 -47 24 -109 23 -74 -1 -128 12 -128 31 0
5 -12 10 -26 10 -14 0 -23 4 -20 8 3 5 -20 15 -52 21 -31 7 -88 23 -127 36
-38 13 -83 23 -100 23 -83 0 -116 3 -111 11 3 5 -8 14 -24 20 -17 5 -30 14
-30 20 0 12 -33 62 -81 122 -20 24 -40 54 -44 67 -3 12 -11 19 -17 16 -7 -5
-9 2 -4 20 6 25 5 26 -13 17 -25 -14 -31 -14 -31 0 0 5 5 7 10 4 6 -4 10 16
10 54 0 63 -11 81 -36 60 -12 -10 -15 -10 -12 1 2 9 -8 14 -29 15 -30 2 -33
-1 -33 -26z m-773 -638 c8 8 13 8 18 -1 10 -16 0 -23 -35 -22 -16 0 -30 -3
-30 -8 0 -13 23 -18 41 -9 22 11 41 -4 42 -34 2 -21 5 -23 16 -14 12 10 13 7
9 -14 -4 -22 -1 -27 16 -26 12 0 28 -3 37 -7 10 -4 22 -1 31 7 18 18 78 11 78
-10 0 -8 5 -11 10 -8 7 4 7 11 2 18 -5 7 -4 21 3 35 l12 23 8 -23 c4 -13 7
-28 6 -35 -1 -7 11 -19 27 -27 16 -8 32 -22 35 -31 4 -8 18 -15 32 -15 14 0
25 -4 25 -10 0 -5 -4 -10 -10 -10 -11 0 -6 -80 6 -89 5 -3 15 -22 21 -42 11
-30 10 -40 -7 -73 -11 -22 -17 -43 -14 -48 3 -5 0 -16 -8 -25 -10 -13 -10 -17
0 -20 19 -7 14 -25 -5 -22 -10 1 -31 -3 -47 -10 -16 -6 -35 -10 -43 -7 -7 3
-13 0 -13 -6 0 -7 -4 -7 -14 1 -7 6 -20 10 -27 8 -8 -2 -11 -2 -6 0 15 9 6 21
-25 32 -17 6 -34 8 -37 3 -18 -26 -136 14 -125 42 3 8 0 17 -7 22 -9 5 -10 2
-6 -10 5 -13 3 -16 -11 -12 -40 12 -112 18 -112 9 0 -10 -41 -10 -58 1 -7 4
-12 3 -12 -3 0 -7 -9 -6 -27 2 -22 10 -28 9 -36 -4 -9 -14 -14 -11 -40 17 -16
19 -37 34 -47 34 -9 0 -25 11 -35 24 -10 13 -24 22 -32 19 -16 -6 -17 2 -1 26
9 15 9 26 1 44 -12 25 -1 44 61 108 14 14 26 34 26 43 0 9 5 16 10 16 6 0 10
-4 10 -10 0 -5 5 -10 11 -10 5 0 7 5 4 10 -3 6 -1 10 5 10 7 0 10 6 7 14 -4 9
0 12 13 9 10 -3 20 0 24 5 3 5 -8 12 -25 16 -17 3 -28 10 -24 16 8 12 55 2 73
-17 7 -7 19 -13 27 -13 7 0 22 -3 32 -6 17 -6 17 -6 -1 8 -25 20 -14 53 14 45
13 -3 20 0 20 9 0 8 -7 14 -15 14 -24 0 -17 20 11 30 34 13 34 13 34 -12 l1
-23 19 24 c11 12 17 27 14 32 -3 5 -2 14 2 21 5 8 11 3 19 -15 8 -19 14 -24
22 -16z m-1377 -36 c-8 -22 -8 -31 2 -40 7 -6 46 -40 86 -75 53 -46 71 -67 66
-79 -4 -9 -7 -24 -8 -33 -4 -36 -23 -23 -31 22 -3 16 -27 50 -37 50 -6 0 -20
10 -32 23 -45 47 -97 87 -114 87 -11 0 -2 -13 28 -38 25 -20 62 -53 83 -73 37
-36 37 -38 28 -80 -15 -64 -44 -128 -49 -106 -2 9 -7 17 -12 17 -4 0 -6 8 -3
18 2 10 -3 25 -13 33 -16 12 -17 12 -9 -1 8 -13 7 -13 -9 0 -10 8 -13 16 -8
18 12 4 -41 98 -69 123 -20 17 -16 29 11 29 20 0 24 39 4 47 -13 5 -13 8 1 23
9 10 24 16 35 13 20 -5 37 28 24 48 -4 8 -3 9 4 5 7 -4 12 -2 12 5 0 9 3 10
10 3 8 -8 7 -20 0 -39z m2698 -113 c37 -19 56 -52 30 -52 -7 0 -48 -18 -90
-40 -43 -22 -78 -37 -78 -34 0 3 -18 -8 -39 -25 -42 -34 -72 -39 -90 -17 -13
15 -10 18 54 52 14 8 21 24 23 50 4 45 16 62 57 81 36 16 84 11 133 -15z
m-2342 -856 c18 -5 24 -12 20 -22 -5 -12 -2 -13 17 -3 12 6 19 8 15 4 -4 -4
-2 -17 4 -29 12 -21 12 -21 19 4 6 23 7 23 8 -7 1 -24 6 -33 18 -33 9 0 13 -3
10 -6 -4 -4 2 -19 12 -33 10 -14 22 -37 26 -50 8 -26 91 -112 99 -103 3 3 12
-9 19 -27 7 -17 17 -28 22 -24 4 5 5 0 2 -10 -4 -10 -7 -29 -7 -43 0 -17 -4
-22 -15 -18 -10 4 -15 0 -15 -12 0 -15 -2 -16 -9 -5 -7 11 -11 10 -19 -5 -8
-15 -13 -16 -25 -5 -12 10 -21 10 -39 0 -13 -6 -20 -8 -16 -4 11 12 -19 36
-36 29 -9 -3 -16 -10 -16 -15 0 -5 -4 -9 -10 -9 -5 0 -6 7 -3 17 5 12 3 14 -7
8 -23 -14 -70 -14 -70 0 0 8 -9 17 -20 20 -11 3 -20 13 -20 21 0 11 -7 14 -22
10 -13 -3 -17 -3 -10 0 6 3 12 10 12 14 0 15 -133 1 -151 -16 -13 -11 -22 -12
-44 -4 -20 7 -31 7 -41 -1 -14 -12 -19 -3 -15 29 1 6 -7 12 -19 12 -11 0 -20
7 -20 15 0 9 -7 18 -15 21 -8 4 -12 10 -9 15 3 5 -1 6 -9 3 -8 -3 -18 0 -22 5
-3 6 -10 9 -14 7 -4 -3 -8 7 -9 21 -3 37 -11 44 -34 32 -14 -8 -23 -8 -31 0
-8 8 -8 11 0 11 7 0 15 9 18 20 3 11 15 20 26 20 23 0 24 13 3 34 -8 9 -11 16
-5 16 5 0 13 -5 16 -10 10 -16 35 15 30 39 -3 14 1 21 12 21 12 0 13 3 5 13
-9 10 -7 19 4 35 13 18 18 20 34 9 11 -6 21 -23 21 -37 1 -23 2 -23 9 5 4 17
8 22 9 13 1 -13 9 -17 31 -15 16 1 30 5 30 8 0 3 11 4 24 2 15 -3 25 1 29 11
4 9 2 16 -3 16 -6 0 -10 3 -10 8 0 4 25 7 55 7 30 0 55 -3 55 -6 0 -12 46 -3
55 11 8 12 10 11 13 -7 2 -13 13 -24 28 -27z m1068 -502 c3 -8 -3 -33 -15 -56
-11 -22 -17 -43 -13 -46 4 -4 9 -1 11 6 6 15 39 16 49 0 10 -15 -55 -67 -84
-68 -20 0 -22 4 -17 23 6 18 5 20 -6 10 -7 -7 -26 -13 -41 -13 -22 0 -28 5
-28 23 0 12 -3 33 -7 46 -4 16 -2 22 4 18 6 -4 13 3 17 16 4 15 20 27 53 38
62 22 70 22 77 3z m-382 -161 c23 -21 57 -53 74 -70 17 -18 36 -33 42 -33 19
0 43 -45 77 -143 23 -68 38 -95 56 -105 32 -17 105 -9 165 19 27 12 53 22 59
24 5 1 27 10 47 19 42 18 55 14 117 -37 38 -32 75 -32 121 1 14 10 51 33 83
51 31 18 57 36 57 41 0 30 120 51 174 30 28 -10 36 -40 11 -40 -8 0 -15 -4
-15 -9 0 -5 -17 -20 -37 -32 -21 -13 -47 -30 -57 -39 -55 -44 -92 -76 -98 -85
-6 -10 -36 -43 -96 -109 -30 -32 -106 -83 -164 -111 -24 -11 -38 -24 -38 -36
0 -11 -3 -19 -7 -19 -5 0 -21 -13 -38 -28 -36 -33 -187 -112 -215 -112 -34 0
-57 20 -52 45 3 16 -2 27 -17 35 -18 9 -22 7 -31 -15 -18 -47 -13 -66 15 -61
18 3 26 -1 32 -17 4 -12 6 -25 5 -29 -1 -4 8 -13 21 -19 37 -20 52 -59 22 -59
-9 0 -18 -6 -20 -12 -7 -18 -161 -24 -180 -8 -11 9 -27 6 -71 -14 -31 -14 -63
-26 -71 -26 -8 0 -11 -5 -7 -12 5 -7 3 -8 -6 -3 -7 4 -26 8 -41 7 -16 0 -31 4
-35 9 -3 6 -12 5 -21 -3 -20 -17 -73 -17 -73 -1 0 7 10 12 21 10 12 -1 24 3
26 10 5 15 -40 39 -92 49 -21 4 -48 16 -59 28 -12 12 -40 34 -63 49 -24 15
-43 31 -43 36 0 5 -7 17 -16 25 -8 9 -12 21 -8 27 5 8 9 8 14 -1 4 -7 35 -14
69 -16 70 -3 70 -5 -3 71 -21 22 -45 50 -53 62 -17 26 -9 50 12 33 9 -8 14 -6
18 9 3 12 -1 22 -10 25 -8 4 -13 12 -10 19 3 7 -6 23 -19 36 -26 25 -23 45 4
37 24 -8 46 9 39 28 -3 8 -2 18 4 21 5 4 7 11 4 16 -4 5 3 21 14 35 12 15 21
32 21 38 0 6 42 54 93 106 70 73 105 118 146 193 29 53 55 97 56 97 2 0 23
-17 47 -37z m367 -22 c8 -5 15 -22 15 -38 1 -15 4 -33 8 -39 4 -6 -1 -19 -12
-29 -16 -15 -30 -17 -76 -11 -55 6 -114 29 -114 44 0 17 32 52 48 52 9 0 28 7
42 14 29 17 69 19 89 7z m821 -362 c37 -25 74 -105 73 -156 -1 -46 -20 -103
-34 -103 -5 0 -9 -6 -9 -13 0 -22 -24 -67 -36 -67 -6 0 -17 -7 -25 -16 -16
-20 -74 -50 -64 -34 5 8 3 10 -6 6 -8 -3 -22 -9 -32 -12 -10 -4 -16 -11 -14
-17 4 -12 108 -48 119 -41 4 3 18 -2 30 -10 13 -8 42 -17 64 -19 36 -4 114
-33 114 -42 0 -17 -16 -35 -31 -35 -11 0 -27 -4 -37 -9 -9 -5 -45 -15 -79 -24
-60 -14 -63 -14 -100 9 -46 28 -83 30 -126 7 -43 -23 -332 -27 -346 -4 -7 11
-17 11 -60 1 -46 -11 -168 -12 -198 -2 -19 6 -16 32 5 39 9 4 37 19 62 33 63
37 108 43 168 20 50 -19 81 -18 117 7 11 7 27 13 37 13 14 0 17 13 20 95 2 52
-1 95 -5 95 -5 0 -6 4 -2 10 3 5 0 18 -7 29 -7 11 -10 23 -6 26 3 3 43 8 89
10 46 3 85 9 87 15 2 5 9 10 15 10 12 0 52 59 49 73 -1 4 2 7 7 7 5 0 16 16
25 35 9 19 22 35 28 35 6 0 8 3 5 7 -4 3 0 15 9 24 20 22 60 21 94 -2z"/>
<path d="M5077 3759 c-10 -13 -16 -16 -19 -8 -2 7 -10 9 -17 5 -9 -6 -9 -11 0
-22 9 -11 8 -14 -5 -14 -9 0 -16 5 -16 11 0 5 -5 7 -11 3 -8 -5 -8 -9 1 -14 6
-4 10 -16 9 -26 -2 -11 1 -30 5 -42 6 -19 13 -23 34 -18 l27 7 -23 -19 c-26
-20 -19 -36 10 -21 10 6 27 8 36 6 13 -4 12 -5 -4 -6 -12 0 -24 -8 -28 -16 -6
-17 2 -45 13 -45 11 0 56 50 45 51 -5 0 0 4 11 8 18 8 16 10 -15 24 l-35 16
30 -2 c17 -1 33 -6 36 -10 4 -5 9 3 13 19 5 18 3 30 -6 35 -10 7 -10 9 0 9 6
0 12 9 12 20 0 16 -5 20 -24 17 -14 -1 -34 -11 -45 -21 -12 -11 -21 -14 -21
-8 0 6 5 14 10 17 16 10 12 28 -5 21 -9 -3 -15 0 -15 10 0 8 4 13 9 10 5 -3
11 1 15 9 8 22 -11 18 -27 -6z"/>
<path d="M2461 3567 c-14 -37 10 -137 33 -137 6 0 4 -5 -4 -10 -12 -8 -12 -10
-1 -10 8 0 11 -3 8 -7 -4 -3 -2 -12 4 -19 6 -8 9 -20 6 -27 -3 -8 -1 -20 3
-27 6 -10 10 -6 15 16 3 16 14 62 24 102 9 39 15 88 13 107 -4 34 -5 35 -48
35 -37 0 -46 -4 -53 -23z"/>
<path d="M205 3554 c-14 -14 -55 -95 -55 -109 0 -33 112 -128 260 -219 30 -19
71 -44 90 -57 40 -25 58 -26 154 -11 69 11 107 35 113 71 3 22 25 63 46 83 22
23 22 55 -3 95 -22 36 -31 34 -101 -19 -19 -15 -51 -34 -71 -43 -57 -23 -105
-2 -241 105 -31 25 -57 50 -57 57 0 7 -6 13 -14 13 -8 0 -21 8 -28 18 -18 26
-73 35 -93 16z"/>
<path d="M3765 3200 c-3 -6 2 -22 13 -38 22 -30 112 -205 112 -216 0 -4 11
-23 25 -43 34 -51 66 -54 99 -10 14 19 26 42 26 52 0 10 -25 48 -55 86 -50 62
-65 89 -49 89 4 0 32 -16 63 -35 39 -23 64 -32 80 -28 14 4 20 11 17 20 -3 8
-6 17 -6 19 0 2 -7 4 -15 4 -8 0 -15 4 -15 9 0 12 -135 59 -192 67 -26 3 -53
12 -59 20 -13 16 -35 18 -44 4z"/>
<path d="M960 3013 c-52 -34 -89 -75 -82 -92 8 -23 64 -71 82 -71 20 0 31 9
58 44 18 23 21 37 16 74 -3 25 -7 49 -10 54 -8 13 -38 9 -64 -9z"/>
<path d="M4036 2854 c-15 -32 -15 -36 -1 -30 13 5 13 2 -2 -18 -13 -18 -22
-22 -35 -15 -25 14 -32 11 -45 -16 -6 -15 -7 -25 -1 -25 5 0 6 -4 3 -10 -3 -5
0 -7 9 -4 8 3 23 -4 33 -15 9 -12 24 -21 31 -21 10 0 10 -3 -2 -15 -18 -19
-70 -10 -62 10 5 14 -39 14 -52 0 -4 -4 3 -4 16 -1 26 9 28 3 6 -19 -9 -9 -13
-23 -9 -32 5 -15 7 -15 16 -3 7 11 8 5 4 -19 -5 -25 -4 -32 5 -26 9 5 10 2 5
-14 -4 -12 -2 -21 4 -21 6 0 7 -7 4 -17 -5 -12 -3 -14 7 -8 10 6 12 3 8 -13
-4 -12 0 -26 8 -33 8 -6 14 -8 14 -3 0 4 6 2 12 -4 10 -10 10 -15 -2 -22 -13
-8 -12 -10 3 -10 10 0 15 -4 12 -10 -3 -5 0 -10 9 -10 8 0 17 6 19 13 3 6 6
-3 6 -20 1 -23 6 -33 17 -33 8 0 12 -5 9 -11 -4 -6 2 -13 14 -16 12 -3 21 -11
21 -18 0 -11 17 -21 50 -30 13 -4 46 -17 60 -24 8 -5 20 -3 25 2 13 13 -51
146 -74 155 -42 15 -69 42 -63 65 5 20 4 21 -11 8 -10 -8 -17 -9 -17 -3 0 6 5
14 11 17 6 4 8 13 5 21 -3 7 -1 16 4 19 6 4 10 22 10 41 0 26 -3 33 -12 28
-10 -6 -10 -4 0 8 14 18 6 51 -12 42 -6 -3 -4 0 4 8 18 15 15 78 -3 78 -9 0
-9 2 0 8 18 11 4 65 -15 57 -13 -5 -13 -3 1 13 23 25 21 32 -6 32 -17 0 -28
-10 -41 -36z"/>
<path d="M3773 2333 c-21 -45 -24 -60 -14 -75 9 -15 8 -18 -9 -18 -13 0 -22
-9 -26 -27 -3 -16 -10 -37 -15 -48 -5 -11 -13 -51 -19 -90 -5 -38 -12 -85 -16
-104 -11 -52 10 -31 47 47 18 38 34 90 37 121 3 39 9 55 22 58 26 7 50 73 50
136 0 77 -22 77 -57 0z"/>
<path d="M3538 2282 c-49 -83 -83 -324 -62 -437 7 -38 10 -41 29 -25 12 10 13
16 4 26 -9 11 -8 14 2 14 8 1 31 30 52 67 l39 65 -19 35 c-20 38 -47 57 -69
49 -8 -3 -14 1 -14 9 0 8 6 14 12 13 9 -2 15 18 19 62 4 36 12 82 19 103 14
48 9 55 -12 19z"/>
<path d="M2984 1921 c4 -72 2 -77 -30 -125 -19 -28 -34 -58 -34 -67 0 -8 -3
-19 -7 -23 -17 -17 -9 -43 22 -73 34 -33 68 -42 80 -23 4 6 16 8 28 4 12 -3
19 -3 15 1 -4 4 8 25 27 47 19 21 35 47 35 58 0 11 4 20 9 20 5 0 13 9 16 20
4 12 11 17 18 13 7 -4 5 1 -2 11 -14 17 -15 17 -23 -4 -5 -14 -14 -20 -23 -16
-10 4 -15 -1 -15 -16 0 -17 -2 -18 -15 -8 -14 12 -14 15 0 30 20 22 19 29 -4
27 -11 -1 -22 -10 -25 -20 -2 -10 -9 -16 -14 -13 -16 10 -4 127 15 148 17 19
17 20 -1 34 -10 7 -23 11 -29 7 -5 -3 -18 5 -28 18 -19 24 -19 24 -15 -50z"/>
<path d="M7723 1660 c-3 -11 -13 -20 -22 -20 -10 0 -17 -9 -18 -20 -1 -11 3
-20 8 -20 6 0 7 -5 4 -10 -4 -6 -1 -18 6 -26 10 -12 8 -18 -9 -35 -12 -11 -22
-29 -22 -39 0 -11 -7 -20 -15 -20 -8 0 -15 -5 -15 -12 0 -6 -7 -19 -16 -29 -9
-10 -16 -37 -17 -61 l-2 -43 -42 3 c-29 3 -43 -1 -43 -9 0 -6 -8 -17 -17 -24
-14 -11 -10 -14 35 -20 44 -6 52 -10 52 -28 0 -17 2 -19 9 -8 7 11 13 12 23 4
7 -6 28 -13 46 -15 41 -6 58 15 68 82 4 25 14 53 22 63 8 9 12 17 9 17 -4 0
-3 10 2 23 10 25 -16 106 -43 136 -19 21 -21 57 -4 67 6 4 25 10 42 13 22 5
32 13 34 29 3 19 -1 22 -33 22 -28 0 -38 -5 -42 -20z"/>
<path d="M2670 1269 c-8 -17 -13 -37 -13 -44 0 -9 -12 -12 -39 -10 -21 2 -38
-1 -38 -6 0 -5 9 -9 20 -9 14 0 20 -6 18 -17 -2 -11 6 -19 22 -24 14 -4 18 -8
10 -9 -11 -1 -9 -4 5 -10 19 -8 19 -9 -2 -9 -13 -1 -23 -6 -23 -11 0 -16 33
-26 38 -12 2 7 10 12 18 12 10 0 13 -7 8 -25 -5 -20 -3 -24 10 -19 9 3 17 10
17 15 1 5 2 14 3 19 0 6 8 15 16 20 20 12 17 81 -4 111 -9 13 -20 23 -24 22
-4 -1 -7 7 -6 17 1 31 -22 23 -36 -11z"/>
<path d="M7822 1283 c-5 -10 -12 -35 -16 -55 -6 -30 -2 -45 19 -76 14 -21 23
-45 20 -53 -3 -8 11 -31 30 -52 19 -21 35 -42 35 -46 0 -5 9 -11 20 -14 18 -5
20 0 20 38 0 24 -4 47 -10 50 -5 3 -10 16 -10 27 0 24 -81 198 -92 198 -4 0
-11 -8 -16 -17z"/>
<path d="M8761 313 c-6 -73 -5 -218 1 -244 4 -14 20 -31 35 -38 16 -7 36 -17
45 -22 10 -5 107 -9 215 -9 l198 0 -66 43 c-37 23 -96 60 -133 82 -65 39 -209
141 -253 179 -13 11 -23 26 -23 33 0 30 -16 10 -19 -24z"/>
<path d="M0 291 c0 -51 9 -64 43 -66 10 -1 22 -6 25 -11 7 -8 48 -26 132 -55
19 -6 42 -14 50 -18 8 -3 44 -6 80 -6 36 0 67 -3 70 -6 8 -9 90 2 90 12 0 5
-8 13 -17 16 -10 4 -20 9 -23 12 -3 3 -27 17 -55 31 -27 13 -70 37 -94 52 -51
32 -134 58 -183 58 -19 0 -43 7 -54 15 -10 8 -29 15 -41 15 -21 0 -23 -5 -23
-49z"/>
<path d="M520 111 c0 -5 14 -12 30 -16 30 -7 38 -19 20 -30 -21 -13 -9 -24 20
-19 20 4 30 2 30 -5 0 -7 7 -19 15 -27 12 -12 15 -12 15 -2 0 10 3 9 10 -2 9
-13 11 -13 20 0 6 10 10 11 10 3 0 -17 109 -17 145 -1 28 13 31 21 13 35 -13
10 -91 35 -118 38 -8 1 -25 5 -38 9 -14 5 -29 3 -38 -5 -11 -9 -20 -9 -40 0
-14 6 -22 16 -19 21 4 6 -10 10 -34 10 -23 0 -41 -4 -41 -9z"/>
</g>
</svg>
